<svg width="100" height="100" viewBox="0 0 100 100" fill="none" xmlns="http://www.w3.org/2000/svg">
<g id="Frame" clip-path="url(#clip0_4_6896)">
<path id="Vector" d="M28.1787 41.8166C28.1787 43.05 28.312 44.0458 28.5454 44.775C28.812 45.5083 29.1454 46.3083 29.612 47.175C29.7787 47.4375 29.8454 47.7041 29.8454 47.9375C29.8454 48.2708 29.6454 48.6041 29.212 48.9375L27.1162 50.3333C26.8629 50.516 26.5615 50.6203 26.2495 50.6333C25.9162 50.6333 25.5829 50.4666 25.2537 50.1666C24.8061 49.6852 24.4057 49.162 24.0579 48.6041C23.6854 47.9651 23.3406 47.3104 23.0245 46.6416C20.4329 49.7 17.1704 51.2291 13.2454 51.2291C10.4537 51.2291 8.22452 50.4333 6.59536 48.8375C4.96619 47.2375 4.13702 45.1125 4.13702 42.45C4.13702 39.625 5.13286 37.325 7.16202 35.6C9.19119 33.8708 11.8829 33.0041 15.3079 33.0041C16.4412 33.0041 17.6037 33.1041 18.8329 33.2708C20.0662 33.4375 21.3329 33.7041 22.6579 34.0041V31.575C22.6579 29.0458 22.1287 27.2833 21.0954 26.2541C20.0329 25.2208 18.237 24.725 15.6787 24.725C14.512 24.725 13.312 24.8541 12.0829 25.1541C10.8537 25.4541 9.65369 25.8208 8.49119 26.2875C8.11216 26.4572 7.72244 26.6019 7.32452 26.7208C7.15316 26.776 6.97521 26.8083 6.79536 26.8166C6.32869 26.8166 6.09536 26.4833 6.09536 25.7875V24.1583C6.09536 23.625 6.16202 23.225 6.32869 22.9916C6.58038 22.6891 6.90025 22.4507 7.26202 22.2958C8.42452 21.6958 9.82036 21.1958 11.4495 20.7958C13.1454 20.3616 14.8907 20.1501 16.6412 20.1666C20.5995 20.1666 23.4912 21.0666 25.3537 22.8625C27.1829 24.6541 28.112 27.3833 28.112 31.0416V41.8166H28.1787ZM14.6787 46.875C15.7745 46.875 16.9037 46.675 18.1037 46.275C19.2995 45.875 20.3662 45.1458 21.262 44.15C21.7954 43.5166 22.1954 42.8166 22.3954 42.0166C22.5912 41.2208 22.7287 40.2541 22.7287 39.125V37.7291C21.7193 37.4831 20.6968 37.2939 19.6662 37.1625C18.6297 37.0308 17.586 36.964 16.5412 36.9625C14.312 36.9625 12.6829 37.3958 11.5829 38.2958C10.487 39.1916 9.95786 40.4541 9.95786 42.1166C9.95786 43.6791 10.3537 44.8458 11.187 45.6416C11.9829 46.475 13.1454 46.875 14.6787 46.875ZM41.387 50.4666C40.787 50.4666 40.387 50.3666 40.1204 50.1333C39.8537 49.9333 39.6204 49.4666 39.4204 48.8375L31.6079 23.125C31.4559 22.6938 31.3552 22.2463 31.3079 21.7916C31.3079 21.2583 31.5745 20.9583 32.1037 20.9583H35.3662C35.9954 20.9583 36.4287 21.0625 36.6579 21.2916C36.9287 21.4916 37.1287 21.9583 37.3245 22.5916L42.9162 44.6083L48.1037 22.5916C48.2704 21.925 48.4704 21.4916 48.7329 21.2916C49.1326 21.0465 49.5981 20.9301 50.0662 20.9583H52.7245C53.3579 20.9583 53.7912 21.0625 54.0579 21.2916C54.3204 21.4916 54.5579 21.9583 54.687 22.5916L59.9412 44.875L65.6954 22.5916C65.8954 21.925 66.1287 21.4916 66.362 21.2916C66.748 21.0466 67.2016 20.9299 67.6579 20.9583H70.7537C71.2829 20.9583 71.587 21.2291 71.587 21.7916C71.587 21.9583 71.5495 22.125 71.5162 22.325C71.464 22.6093 71.3859 22.8882 71.2829 23.1583L63.2704 48.8666C63.0704 49.5333 62.837 49.9625 62.5704 50.1625C62.1949 50.4033 61.7532 50.52 61.3079 50.4958H58.4454C57.8162 50.4958 57.3829 50.3958 57.112 50.1625C56.8495 49.9291 56.6162 49.4958 56.487 48.8291L51.3287 27.3791L46.2037 48.7958C46.037 49.4625 45.8412 49.8958 45.5787 50.1291C45.3079 50.3625 44.8412 50.4625 44.2454 50.4625L41.387 50.4666ZM84.1204 51.3625C82.3912 51.3625 80.662 51.1625 78.9995 50.7666C77.337 50.3666 76.0412 49.9333 75.1745 49.4333C74.6412 49.1375 74.2787 48.8041 74.1454 48.5041C74.0154 48.21 73.9473 47.8923 73.9454 47.5708V45.875C73.9454 45.1791 74.212 44.8458 74.7079 44.8458C74.9079 44.8458 75.1078 44.8791 75.3079 44.9458C75.5079 45.0125 75.8079 45.1458 76.1412 45.2791C77.2704 45.7791 78.4995 46.175 79.7995 46.4416C81.1287 46.7083 82.4245 46.8416 83.7579 46.8416C85.8495 46.8416 87.4829 46.475 88.612 45.7416C89.1533 45.4146 89.5984 44.9502 89.9021 44.3954C90.2058 43.8407 90.3573 43.2155 90.3412 42.5833C90.3534 42.1551 90.2805 41.7288 90.1267 41.3289C89.9729 40.9291 89.7413 40.5638 89.4454 40.2541C88.8454 39.625 87.712 39.0583 86.0829 38.525L81.262 37.025C78.8329 36.2625 77.037 35.1333 75.9412 33.6375C74.8687 32.257 74.2827 30.5606 74.2745 28.8125C74.2745 27.4166 74.5787 26.1875 75.1745 25.1208C75.7745 24.0583 76.5704 23.125 77.5704 22.3958C78.5704 21.6291 79.6954 21.0625 81.0287 20.6666C82.362 20.2666 83.7579 20.1 85.2204 20.1C85.9495 20.1 86.7162 20.1333 87.4495 20.2333C88.212 20.3333 88.9079 20.4666 89.6079 20.6C90.2745 20.7666 90.9079 20.9333 91.5037 21.1291C92.1037 21.3291 92.5704 21.5291 92.9037 21.7291C93.2963 21.9268 93.6385 22.2119 93.9037 22.5625C94.1185 22.886 94.2223 23.2706 94.1995 23.6583V25.2208C94.1995 25.9208 93.9329 26.2875 93.4329 26.2875C92.9902 26.2367 92.5615 26.1009 92.1704 25.8875C90.161 24.9999 87.9834 24.5578 85.787 24.5916C83.8912 24.5916 82.3912 24.8875 81.362 25.5208C80.3287 26.1541 79.7995 27.1166 79.7995 28.4791C79.7995 29.4125 80.1329 30.2125 80.7995 30.8416C81.462 31.475 82.6912 32.1083 84.4537 32.675L89.1787 34.1666C91.5704 34.9333 93.3037 36 94.3328 37.3625C95.362 38.725 95.862 40.2875 95.862 42.0166C95.862 43.4458 95.562 44.7458 94.9995 45.875C94.3995 47.0083 93.5995 48.0041 92.5704 48.8041C91.537 49.6375 90.3079 50.2333 88.8787 50.6666C87.3787 51.1291 85.8204 51.3625 84.1204 51.3625ZM90.4079 67.5292C79.4662 75.6125 63.5662 79.9 49.8995 79.9C30.7412 79.9 13.4829 72.8166 0.441191 61.0416C-0.587976 60.1125 0.341191 58.8458 1.57452 59.5791C15.6745 67.7583 33.0704 72.7166 51.062 72.7166C63.2037 72.7166 76.537 70.1875 88.812 65C90.6412 64.1666 92.2037 66.1958 90.4079 67.5292ZM94.9662 62.3375C93.5662 60.5458 85.7162 61.475 82.1579 61.9083C81.0954 62.0416 80.9287 61.1083 81.8954 60.4083C88.1454 56.0208 98.4245 57.2833 99.6204 58.7458C100.816 60.2458 99.287 70.5208 93.4329 75.4417C92.537 76.2083 91.6704 75.8083 92.0704 74.8125C93.4037 71.5208 96.362 64.1041 94.9662 62.3375Z" fill="#050505"/>
</g>
<defs>
<clipPath id="clip0_4_6896">
<rect width="100" height="100" fill="white"/>
</clipPath>
</defs>
</svg>
