<svg width="32" height="32" viewBox="0 0 32 32" fill="none" xmlns="http://www.w3.org/2000/svg">
<path d="M19.4895 6.40914C20.8486 6.90353 22.1238 7.69585 23.214 8.78607C24.3042 9.8763 25.0966 11.1515 25.5909 12.5106M19.4895 6.40914C22.976 4.29013 25.9111 3.57849 27.1664 4.83374C28.4216 6.08899 27.71 9.02407 25.5909 12.5106M19.4895 6.40914C16.8214 5.43852 13.8303 5.61631 11.2824 6.94284M25.5909 12.5106C24.2012 14.7971 22.2061 17.3209 19.7635 19.7635C18.7464 20.7807 17.7151 21.7202 16.6928 22.5707M25.5909 12.5106C26.5616 15.1787 26.3838 18.1698 25.0573 20.7177M20.7177 25.0573C21.6184 24.5883 22.4637 23.9758 23.2197 23.2197C23.9758 22.4637 24.5883 21.6184 25.0573 20.7177M20.7177 25.0573C22.8507 26.0528 24.5703 26.2471 25.4087 25.4087C26.2471 24.5703 26.0528 22.8507 25.0573 20.7177M20.7177 25.0573C19.4841 24.4815 18.1124 23.6378 16.6928 22.5707M20.7177 25.0573C18.1698 26.3838 15.1787 26.5616 12.5106 25.5909M16.6928 22.5707C15.4169 21.6117 14.1025 20.4723 12.8152 19.1849C10.0956 16.4653 8.03607 13.6247 6.94284 11.2824M16.6928 22.5707C15.2601 23.7627 13.845 24.7799 12.5106 25.5909M6.40914 19.4895C6.90353 20.8486 7.69585 22.1238 8.78607 23.214C9.8763 24.3042 11.1515 25.0966 12.5106 25.5909M6.40914 19.4895C4.29013 22.976 3.57849 25.9111 4.83374 27.1664C6.08899 28.4216 9.02407 27.71 12.5106 25.5909M6.40914 19.4895C5.43852 16.8214 5.61631 13.8303 6.94284 11.2824M6.94284 11.2824C5.94726 9.14941 5.75303 7.42976 6.5914 6.5914C7.42977 5.75303 9.14941 5.94726 11.2824 6.94284M6.94284 11.2824C7.41178 10.3817 8.02428 9.53642 8.78035 8.78035C9.53642 8.02428 10.3817 7.41178 11.2824 6.94284" stroke="#050505" stroke-linecap="round" stroke-linejoin="round"/>
</svg>
