<svg width="32" height="32" viewBox="0 0 32 32" fill="none" xmlns="http://www.w3.org/2000/svg">
<path d="M14.1699 9.17371C14.7136 8.89705 15.296 8.74658 15.9027 8.74658C16.393 8.74658 16.8638 8.84366 17.3055 9.02325C19.4411 9.88722 20.9992 12.6733 20.9992 15.9739C20.9992 19.2744 19.4411 22.0605 17.3055 22.9245C16.8589 23.1041 16.3881 23.2011 15.9027 23.2011C15.296 23.2011 14.7087 23.0507 14.1699 22.774M14.1699 9.17371C15.7231 10.1784 16.8298 12.8432 16.8298 15.9739C16.8298 19.1045 15.7231 21.7693 14.1699 22.774M14.1699 9.17371C13.7428 8.89705 13.2817 8.74658 12.8012 8.74658C12.1605 8.74658 11.5537 9.01839 11.015 9.49406M14.1699 22.774C13.7428 23.0507 13.2817 23.2011 12.8012 23.2011C12.1605 23.2011 11.5537 22.9342 11.015 22.4537M11.015 9.49406C11.9906 10.6735 12.6653 13.1344 12.6653 15.9739M11.015 9.49406C11.9954 10.6784 12.6653 13.1344 12.6653 15.9739M11.015 9.49406C10.617 9.01839 10.1704 8.74658 9.69955 8.74658C8.98119 8.74658 8.32108 9.37272 7.80658 10.4114C8.224 11.7365 8.49096 13.7363 8.49096 15.9739M12.6653 15.9739C12.6653 18.8133 11.9954 21.2693 11.015 22.4537M12.6653 15.9739C12.6653 18.8133 11.9906 21.2742 11.015 22.4537M11.015 22.4537C10.617 22.9293 10.1704 23.2011 9.69955 23.2011C8.97634 23.2011 8.32108 22.575 7.80658 21.5363M8.49096 15.9739C8.49096 18.2115 8.224 20.2112 7.80658 21.5363M8.49096 15.9739C8.49096 13.7363 8.22883 11.7365 7.81141 10.4114C7.48135 9.37272 7.05907 8.74658 6.59796 8.74658C5.54955 8.74658 4.70013 11.9841 4.70013 15.9739C4.70013 19.9637 5.54955 23.2011 6.59796 23.2011C7.05907 23.2011 7.48137 22.575 7.80658 21.5363M22.1059 8.74658C21.5283 8.74658 20.9701 8.81453 20.4313 8.94073C23.1446 9.69792 25.1638 12.5568 25.1638 15.9739C25.1638 19.3909 23.1495 22.2498 20.4313 23.007C20.9701 23.1332 21.5283 23.2011 22.1059 23.2011C26.0957 23.2011 29.3332 19.9637 29.3332 15.9739C29.3332 11.9841 26.1006 8.74658 22.1059 8.74658ZM25.1687 15.9739C25.1687 12.5568 23.1496 9.69792 20.4315 8.94073C19.9752 8.81453 19.4947 8.74658 19.0044 8.74658C18.4171 8.74658 17.8444 8.84366 17.3056 9.02325C19.4364 9.88722 20.9993 12.6733 20.9993 15.9739C20.9993 19.2744 19.4413 22.0605 17.3056 22.9245C17.8444 23.1041 18.4123 23.2011 19.0044 23.2011C19.4947 23.2011 19.9752 23.1332 20.4315 23.007C23.1496 22.2498 25.1687 19.3909 25.1687 15.9739ZM3.4965 8.74658C3.04024 8.74658 2.6665 11.9841 2.6665 15.9739C2.6665 19.9637 3.04024 23.2011 3.4965 23.2011C3.95276 23.2011 4.3265 19.9637 4.3265 15.9739C4.3265 11.9841 3.95761 8.74658 3.4965 8.74658Z" stroke="#050505" stroke-linecap="round" stroke-linejoin="round"/>
</svg>
