<svg width="32" height="32" viewBox="0 0 32 32" fill="none" xmlns="http://www.w3.org/2000/svg">
<path d="M28.5232 16.2541C28.5232 11.4248 25.7234 7.25017 21.6601 5.26801M28.5232 16.2541C27.8914 16.2541 27.379 16.7668 27.379 17.3991C27.379 18.0315 27.8911 18.5442 28.5228 18.5442C29.1545 18.5442 29.6667 18.0315 29.6667 17.3991C29.6667 16.7668 29.1549 16.2541 28.5232 16.2541ZM16.3221 4.04015C10.5004 4.04015 5.63102 8.12176 4.41379 13.5823M21.6601 5.26801C21.3568 5.82279 20.6617 6.02659 20.1075 5.72304C19.5533 5.4195 19.3499 4.72368 19.6531 4.1689C19.9563 3.61411 20.6514 3.41044 21.2056 3.71399C21.7598 4.01753 21.9633 4.71322 21.6601 5.26801ZM4.33511 18.5442C5.40592 24.1951 10.3655 28.468 16.3221 28.468C20.6492 28.468 24.4501 26.2132 26.6164 22.8132M24.3519 16.5506C24.3519 21.1881 20.5964 24.9476 15.9637 24.9476C11.331 24.9476 7.57541 21.1881 7.57541 16.5506C7.57541 12.9902 9.78887 9.94741 12.9134 8.72591M15.9637 8.15347C19.5525 8.15347 22.6149 10.4096 23.8128 13.5823M5.25662 14.9622C5.10974 15.5773 4.49259 15.9567 3.87817 15.8096C3.26375 15.6626 2.88473 15.0448 3.03161 14.4297C3.17849 13.8147 3.79564 13.4353 4.41006 13.5823C5.02448 13.7293 5.4035 14.3471 5.25662 14.9622ZM21.3016 16.5506C21.3016 19.5017 18.9117 21.8942 15.9637 21.8942C13.0156 21.8942 10.6257 19.5017 10.6257 16.5506C10.6257 13.5994 13.0156 11.207 15.9637 11.207C18.9117 11.207 21.3016 13.5994 21.3016 16.5506Z" stroke="#050505" stroke-linecap="round" stroke-linejoin="round"/>
</svg>
