<svg width="32" height="32" viewBox="0 0 32 32" fill="none" xmlns="http://www.w3.org/2000/svg">
<path d="M24.4796 18.9848C24.2792 19.562 24.0147 20.1152 23.7021 20.6283C22.1311 23.2337 19.2777 24.9813 16.0155 24.9813C11.2705 24.9813 7.39109 21.3017 7.07048 16.644M24.4796 18.9848C22.083 19.0329 18.9811 18.8405 15.6388 18.3916M24.4796 18.9848C25.6257 18.9608 26.6196 18.8806 27.3971 18.7443C28.5513 18.5439 29.2406 18.2313 29.3047 17.8064C29.4169 17.0849 27.7257 16.1951 24.9685 15.3774C24.9845 15.5858 24.9925 15.7942 24.9925 16.0107C24.9925 16.4115 24.9605 16.8043 24.9124 17.1891C24.8242 17.8064 24.6799 18.4076 24.4796 18.9848ZM7.07048 16.644C7.05445 16.4355 7.04643 16.2271 7.04643 16.0107C7.04643 15.6098 7.07048 15.217 7.12659 14.8322C9.1865 15.9465 11.9598 17.157 15.0857 18.2553C15.1739 18.2874 15.262 18.3195 15.3502 18.3515M7.07048 16.644C9.27467 17.3013 12.1602 17.9106 15.3502 18.3515M7.07048 16.644C4.29721 15.8263 2.606 14.9364 2.72623 14.2149C2.79035 13.7901 3.47966 13.4774 4.63385 13.277C5.41133 13.1407 6.40522 13.0605 7.55139 13.0365C7.35101 13.6137 7.20674 14.2149 7.11857 14.8322C9.17849 15.9465 11.9518 17.157 15.0777 18.2553C15.1739 18.2874 15.262 18.3195 15.3502 18.3515M15.3502 18.3515C15.4464 18.3676 15.5426 18.3756 15.6388 18.3916M15.3502 18.3515C18.4681 19.4418 21.3937 20.2274 23.7021 20.6363C26.4273 21.1253 28.2868 21.0932 28.5593 20.4278C28.7276 20.027 28.2948 19.4418 27.4051 18.7604C26.7799 18.2794 25.9383 17.7503 24.9124 17.1971C24.8242 17.8144 24.6799 18.4157 24.4796 18.9929C22.083 19.041 18.9891 18.8486 15.6388 18.3916M24.9845 16.0107C24.9845 16.4115 24.9605 16.8043 24.9044 17.1891C24.8242 17.8144 24.6799 18.4157 24.4715 18.9848C22.075 19.0329 18.9811 18.8405 15.6307 18.3836C15.5346 18.3676 15.4384 18.3595 15.3422 18.3435C15.254 18.3114 15.1659 18.2794 15.0777 18.2473C11.9518 17.149 9.17047 15.9385 7.11857 14.8242C7.19872 14.1989 7.343 13.5977 7.55139 13.0285C7.75177 12.4513 8.01628 11.8981 8.32887 11.3851C9.89184 8.77965 12.7453 7.04004 16.0155 7.04004C20.7605 7.04004 24.6399 10.7197 24.9605 15.3774C24.9765 15.5858 24.9845 15.8022 24.9845 16.0107ZM8.32086 11.3931C8.00826 11.9061 7.75177 12.4593 7.54338 13.0365C7.343 13.6137 7.19872 14.2149 7.11056 14.8322C6.08461 14.2791 5.24301 13.75 4.61782 13.269C3.72813 12.5795 3.29531 11.9943 3.46363 11.5935C3.73615 10.9281 5.59568 10.9041 8.32086 11.3931Z" stroke="#050505" stroke-miterlimit="10" stroke-linecap="round" stroke-linejoin="round"/>
</svg>
