<svg width="74" height="92" viewBox="0 0 74 92" fill="none" xmlns="http://www.w3.org/2000/svg">
<g id="Monochrome_Vertical_Lockup_White 1" clip-path="url(#clip0_4_6911)">
<path id="Vector" d="M57.3621 22.8794C55.8925 20.8351 52.5134 16.6318 47.3226 10.3876C45.0694 7.67916 43.1366 5.38024 42.1852 4.2516C41.6604 3.62899 41.2103 3.0963 40.8552 2.67515L40.2888 2.00594L39.9816 1.64304L39.922 1.55481L39.8952 1.54316L38.5852 0L36.9246 1.33507C32.6855 4.73933 29.2133 9.12744 26.8869 14.0183C25.4607 16.9281 24.5291 19.7731 24.0408 22.7028C23.913 23.3621 23.8035 24.0397 23.7121 24.7189C23.1426 24.6722 22.563 24.6422 21.9885 24.6289C21.9403 24.6256 21.8922 24.624 21.8274 24.6222C19.7236 24.5491 17.6313 24.8003 15.6105 25.3713L14.7454 25.6143L14.3004 26.3968C12.2148 30.0642 11.0342 34.2391 10.8864 38.4691C10.6954 43.9625 12.1882 49.2795 15.2037 53.8457C18.1544 58.312 22.3222 61.7264 27.2572 63.7188L27.8998 63.9786L28.0941 64.0469L28.1024 64.0435C30.6729 64.9791 33.3713 65.5017 36.1225 65.5967C36.4347 65.6084 36.7454 65.6134 37.0558 65.6134C40.5279 65.6134 43.9087 64.9324 47.1168 63.5858L47.14 63.5957L47.9936 63.1995C52.3209 61.1935 56.0238 58.0407 58.7022 54.0804C61.4569 50.007 63.0046 45.241 63.1771 40.2985C63.3831 34.3906 61.4254 28.5308 57.3603 22.8809L57.3621 22.8794ZM38.0454 41.1842C38.9406 44.585 38.7645 47.8529 37.5258 50.9109C34.4307 47.8479 32.1607 44.4802 30.7759 40.8911C29.293 37.0523 28.4014 33.4001 28.1191 30.0224C29.4293 30.4536 30.6331 31.0229 31.7057 31.7238C34.791 33.7396 36.9246 36.9227 38.0454 41.1858V41.1842ZM38.61 57.6479C39.9251 58.6516 41.3084 59.5921 42.7349 60.4578C40.6343 61.0305 38.4674 61.2819 36.2755 61.2037C35.9368 61.1919 35.598 61.1719 35.2575 61.1437C36.5063 60.0649 37.6286 58.8947 38.6084 57.6479H38.61ZM42.2832 40.0637C40.875 34.7135 38.1203 30.6685 34.0969 28.0415C32.3317 26.8895 30.3209 26.0157 28.1123 25.4445C28.144 25.0768 28.1839 24.7106 28.2304 24.3509C28.2702 24.0429 28.3116 23.7599 28.3566 23.4952C28.7201 21.6125 29.2615 19.7497 29.9621 17.9602C30.2311 17.2744 30.5251 16.5935 30.8373 15.936L30.849 15.9127C31.3305 14.9355 31.8735 13.9483 32.5127 12.8929L32.7635 12.4784L32.7552 12.4734C34.2397 10.1479 36.018 8.02709 38.0522 6.15764L38.8376 7.08819C40.6692 9.26393 42.391 11.3215 43.9569 13.2042C47.4787 17.4392 52.0451 23.0009 53.807 25.4529C57.2906 30.2939 58.9694 35.2362 58.7985 40.1469C58.6656 43.9609 57.5398 47.6797 55.5405 50.8992C53.6475 53.9506 51.0107 56.5042 47.9038 58.3021C46.1704 57.4348 43.653 56.0082 40.9796 53.9323C43.135 49.6257 43.575 44.963 42.2848 40.0637H42.2832ZM35.2609 54.8196C33.2849 57.3864 30.9336 59.0561 29.562 59.8952C29.3395 59.8135 29.1171 59.7287 28.8978 59.6388L28.7219 59.5689C24.6586 57.8858 21.2313 55.041 18.8103 51.3387C16.3362 47.555 15.1107 43.1568 15.2685 38.6188C15.3814 35.3661 16.19 32.2582 17.6745 29.38C18.5363 29.1886 19.4147 29.0686 20.2931 29.0237L20.5206 29.0188C20.964 29.0086 21.4057 29.0086 21.8258 29.0188C22.4435 29.047 23.0628 29.1119 23.6723 29.2102C23.8714 33.3453 24.8844 37.8066 26.6861 42.4742C28.4212 46.9674 31.304 51.1173 35.2593 54.8178L35.2609 54.8196Z" fill="#050505"/>
<path id="Vector_2" d="M68.9079 92C67.9016 92 66.992 91.7651 66.1789 91.2954C65.3795 90.8254 64.7522 90.176 64.2974 89.3469C63.8426 88.5042 63.6152 87.5646 63.6152 86.5283C63.6152 85.5334 63.8289 84.6215 64.2563 83.7924C64.6971 82.9495 65.3105 82.2863 66.0961 81.8027C66.8818 81.3052 67.7777 81.0565 68.7838 81.0565C69.8175 81.0565 70.7134 81.2845 71.4714 81.7404C72.2433 82.1966 72.829 82.832 73.2287 83.6474C73.6284 84.4488 73.8284 85.3744 73.8284 86.4245C73.8284 86.549 73.8214 86.6733 73.8077 86.7977C73.7937 86.922 73.787 86.9912 73.787 87.005H65.8894C65.9583 87.9446 66.2961 88.67 66.9025 89.1812C67.5089 89.6923 68.1981 89.948 68.9698 89.948C70.1551 89.948 71.0647 89.3954 71.6988 88.29L73.6421 89.2227C73.1873 90.0655 72.5533 90.7425 71.7402 91.2539C70.9408 91.7513 69.9966 92 68.9079 92ZM71.5128 85.2639C71.4851 84.9323 71.3749 84.5938 71.1819 84.2483C70.9889 83.9029 70.6857 83.6127 70.2723 83.3779C69.8726 83.1292 69.3695 83.0048 68.7631 83.0048C68.0878 83.0048 67.5019 83.212 67.0057 83.6267C66.5235 84.0411 66.1926 84.5868 66.0134 85.2639H71.5128Z" fill="#050505"/>
<path id="Vector_3" d="M58.6232 92C57.4518 92 56.4801 91.7306 55.7082 91.1916C54.9502 90.639 54.4126 89.948 54.0957 89.1189L56.1218 88.2485C56.356 88.815 56.6938 89.2434 57.1347 89.5336C57.5897 89.8238 58.0859 89.9688 58.6232 89.9688C59.1884 89.9688 59.6502 89.8651 60.0085 89.6578C60.3668 89.4369 60.5461 89.1536 60.5461 88.8082C60.5461 88.4765 60.4012 88.207 60.1117 87.9998C59.8223 87.7788 59.3468 87.5854 58.6853 87.4194L57.2795 87.0879C56.5076 86.9082 55.8391 86.5765 55.2741 86.0931C54.7228 85.5956 54.447 84.953 54.447 84.1656C54.447 83.212 54.84 82.4591 55.6256 81.9064C56.4111 81.3397 57.376 81.0565 58.52 81.0565C59.4709 81.0565 60.3117 81.257 61.0423 81.6577C61.7865 82.0584 62.3239 82.6386 62.6547 83.3987L60.6493 84.2483C60.4563 83.8201 60.1601 83.5022 59.7604 83.295C59.3607 83.0877 58.9264 82.984 58.4579 82.984C58.0031 82.984 57.6034 83.0877 57.2588 83.295C56.9142 83.4884 56.7419 83.7509 56.7419 84.0826C56.7419 84.3728 56.8591 84.6075 57.0935 84.7873C57.3416 84.967 57.7273 85.119 58.2512 85.2432L59.7811 85.6164C60.8146 85.8789 61.5866 86.2796 62.0965 86.8185C62.6064 87.3434 62.8614 87.9791 62.8614 88.7252C62.8614 89.3331 62.6754 89.8858 62.3032 90.3832C61.9449 90.8807 61.4419 91.2746 60.7942 91.5646C60.1601 91.8548 59.4365 92 58.6232 92Z" fill="#050505"/>
<path id="Vector_4" d="M47.7439 92C47.0136 92 46.3519 91.8548 45.7592 91.5646C45.1805 91.2606 44.7187 90.8462 44.3741 90.3212C44.0432 89.7823 43.8779 89.1744 43.8779 88.4972C43.8779 87.4194 44.2776 86.5698 45.077 85.9479C45.8903 85.3262 46.9171 85.0152 48.1576 85.0152C49.2464 85.0152 50.1767 85.2017 50.9484 85.5749V85.1397C50.9484 84.5178 50.7003 84.0066 50.2041 83.6059C49.7219 83.1912 49.136 82.984 48.447 82.984C47.3993 82.984 46.5588 83.4124 45.9247 84.2691L44.1881 83.067C44.6706 82.4176 45.27 81.9201 45.9868 81.5747C46.7171 81.2292 47.5372 81.0565 48.447 81.0565C49.9493 81.0565 51.107 81.4365 51.9201 82.1966C52.7471 82.9425 53.1605 83.9996 53.1605 85.3677V91.6683H50.9484V90.404H50.8245C50.4936 90.8739 50.0732 91.2606 49.5633 91.5646C49.0534 91.8548 48.447 92 47.7439 92ZM48.1162 90.1138C48.6261 90.1138 49.0948 89.9895 49.5219 89.7408C49.963 89.4784 50.3076 89.1397 50.5557 88.7252C50.8175 88.2968 50.9484 87.8408 50.9484 87.3574C50.2181 86.9567 49.4392 86.7562 48.6124 86.7562C47.8544 86.7562 47.2617 86.922 46.8343 87.2537C46.4072 87.5854 46.1935 88.0068 46.1935 88.518C46.1935 88.9877 46.3795 89.3746 46.7516 89.6786C47.1375 89.9688 47.5923 90.1138 48.1162 90.1138Z" fill="#050505"/>
<path id="Vector_5" d="M38.2023 92C37.458 92 36.7895 91.8411 36.1969 91.5234C35.6179 91.2056 35.1838 90.8049 34.8943 90.3213H34.7704V91.6683H32.6201V76.8286H34.8943V81.2848L34.7704 82.7148H34.8943C35.1838 82.2449 35.6179 81.8512 36.1969 81.5335C36.7895 81.2155 37.458 81.0566 38.2023 81.0566C39.0842 81.0566 39.8975 81.2915 40.6418 81.7614C41.3998 82.2311 41.9992 82.8875 42.4403 83.7304C42.8953 84.5593 43.1227 85.492 43.1227 86.5283C43.1227 87.5647 42.8953 88.4973 42.4403 89.3264C41.9992 90.1555 41.3998 90.8117 40.6418 91.2954C39.8975 91.7651 39.0842 92 38.2023 92ZM37.8093 89.9068C38.3469 89.9068 38.8431 89.7686 39.2979 89.4921C39.7666 89.2159 40.1387 88.822 40.4144 88.3108C40.7037 87.7856 40.8485 87.1917 40.8485 86.5283C40.8485 85.8651 40.7037 85.278 40.4144 84.7665C40.1387 84.2416 39.7666 83.8409 39.2979 83.5645C38.8431 83.2882 38.3469 83.15 37.8093 83.15C37.2718 83.15 36.7688 83.2882 36.3001 83.5645C35.8453 83.8409 35.4733 84.2346 35.1838 84.7458C34.908 85.2572 34.7704 85.8514 34.7704 86.5283C34.7704 87.2055 34.908 87.7996 35.1838 88.3108C35.4733 88.822 35.8453 89.2159 36.3001 89.4921C36.7688 89.7686 37.2718 89.9068 37.8093 89.9068Z" fill="#050505"/>
<path id="Vector_6" d="M26.3453 92C25.3392 92 24.4296 91.7651 23.6163 91.2954C22.8169 90.8254 22.1898 90.176 21.735 89.3469C21.2802 88.5042 21.0527 87.5646 21.0527 86.5283C21.0527 85.5334 21.2664 84.6215 21.6936 83.7924C22.1347 82.9495 22.7481 82.2863 23.5337 81.8027C24.3192 81.3052 25.215 81.0565 26.2214 81.0565C27.2549 81.0565 28.1508 81.2845 28.909 81.7404C29.6807 82.1966 30.2664 82.832 30.6661 83.6474C31.066 84.4488 31.2657 85.3744 31.2657 86.4245C31.2657 86.549 31.2588 86.6733 31.245 86.7977C31.2313 86.922 31.2243 86.9912 31.2243 87.005H23.3268C23.3959 87.9446 23.7335 88.67 24.3399 89.1812C24.9463 89.6923 25.6354 89.948 26.4074 89.948C27.5927 89.948 28.5023 89.3954 29.1364 88.29L31.0797 89.2227C30.6249 90.0655 29.9909 90.7425 29.1778 91.2539C28.3782 91.7513 27.4341 92 26.3453 92ZM28.9501 85.2639C28.9227 84.9323 28.8125 84.5938 28.6195 84.2483C28.4265 83.9029 28.1233 83.6127 27.7099 83.3779C27.31 83.1292 26.8071 83.0048 26.2007 83.0048C25.5252 83.0048 24.9395 83.212 24.4433 83.6267C23.9609 84.0411 23.63 84.5868 23.451 85.2639H28.9501Z" fill="#050505"/>
<path id="Vector_7" d="M14.7412 81.3882H16.8913V82.922H17.0154C17.2359 82.3968 17.6356 81.9616 18.2144 81.6162C18.7933 81.257 19.386 81.0773 19.9924 81.0773C20.4886 81.0773 20.8952 81.1465 21.2122 81.2845V83.6682C20.7436 83.4332 20.2198 83.3157 19.641 83.3157C18.8967 83.3157 18.2696 83.6059 17.7596 84.1863C17.2634 84.7528 17.0154 85.4507 17.0154 86.2796V91.6683H14.7412V81.3882Z" fill="#050505"/>
<path id="Vector_8" d="M11.4957 79.6472C11.0684 79.6472 10.7032 79.5022 10.4 79.212C10.1106 78.908 9.96582 78.5418 9.96582 78.1134C9.96582 77.6852 10.1106 77.3258 10.4 77.0358C10.7032 76.7318 11.0684 76.5798 11.4957 76.5798C11.923 76.5798 12.2813 76.7318 12.5708 77.0358C12.874 77.3258 13.0256 77.6852 13.0256 78.1134C13.0256 78.5418 12.874 78.908 12.5708 79.212C12.2813 79.5022 11.923 79.6472 11.4957 79.6472ZM10.3586 81.3882H12.6328V91.6683H10.3586V81.3882Z" fill="#050505"/>
<path id="Vector_9" d="M0 76.8286H8.99323V79.0463H2.3155V83.3157H8.33166V85.5127H2.3155V91.6683H0V76.8286Z" fill="#050505"/>
</g>
<defs>
<clipPath id="clip0_4_6911">
<rect width="74" height="92" fill="white"/>
</clipPath>
</defs>
</svg>
