<svg width="74" height="21" viewBox="0 0 74 21" fill="none" xmlns="http://www.w3.org/2000/svg">
<g id="hugo-logo-wide 1">
<g id="Vector">
<path fill-rule="evenodd" clip-rule="evenodd" d="M65.8733 2.20044L71.2872 5.32524C71.604 5.50815 71.8674 5.77214 72.0505 6.09052C72.2337 6.4089 72.3301 6.77036 72.3301 7.13835V14.0501C72.3301 14.398 72.2375 14.7394 72.0619 15.0389C71.8863 15.3384 71.6341 15.5849 71.3318 15.7527L65.502 18.9882C65.197 19.1575 64.8539 19.2447 64.5057 19.2414C64.1576 19.2381 63.8161 19.1444 63.5144 18.9693L58.3909 15.9976C57.9721 15.7547 57.6244 15.405 57.3825 14.9835C57.1407 14.5621 57.0134 14.0839 57.0134 13.5971V7.74038C57.0134 7.20238 57.1519 6.67358 57.4154 6.20565C57.6788 5.73772 58.0583 5.34667 58.5166 5.07071L63.2432 2.22489C63.64 1.98596 64.0927 1.85776 64.555 1.85347C65.0172 1.84917 65.4722 1.96893 65.8733 2.20044Z" fill="#050505"/>
<path fill-rule="evenodd" clip-rule="evenodd" d="M47.2034 2.10889L52.8607 5.35396C53.1642 5.52801 53.4165 5.77994 53.592 6.08414C53.7676 6.38834 53.86 6.73395 53.8599 7.08582V13.8646C53.86 14.2542 53.7568 14.6367 53.5609 14.9727C53.3651 15.3086 53.0837 15.5857 52.7459 15.7753L47.0882 18.9504C46.7665 19.1309 46.4038 19.224 46.0357 19.2205C45.6675 19.217 45.3066 19.117 44.9884 18.9305L39.8853 15.9371C39.4769 15.6976 39.1381 15.3544 38.9026 14.9417C38.6671 14.529 38.5432 14.0613 38.5432 13.5852V7.80647C38.5432 7.23377 38.6909 6.6709 38.9718 6.17306C39.2527 5.67522 39.6572 5.2595 40.1457 4.96667L44.8746 2.13125C45.2263 1.92041 45.6271 1.80726 46.0363 1.80334C46.4454 1.79941 46.8479 1.90484 47.2034 2.10889Z" fill="#050505"/>
<path fill-rule="evenodd" clip-rule="evenodd" d="M28.7424 2.019L34.3958 5.36708C34.684 5.53778 34.9233 5.78103 35.0901 6.07296C35.2569 6.3649 35.3455 6.69551 35.3473 7.03237L35.3825 13.7708C35.3848 14.1885 35.2757 14.5992 35.0667 14.9599C34.8577 15.3206 34.5564 15.6182 34.1942 15.8215L28.6421 18.9368C28.3131 19.1214 27.9422 19.2166 27.5657 19.213C27.1892 19.2094 26.82 19.1072 26.4946 18.9164L21.391 15.923C20.99 15.6878 20.6573 15.3508 20.426 14.9455C20.1947 14.5402 20.073 14.0809 20.073 13.6134V7.63396C20.0729 7.11217 20.2052 6.59904 20.4574 6.14327C20.7095 5.68751 21.073 5.30423 21.5134 5.02984L26.3022 2.04621C26.668 1.81837 27.0885 1.69543 27.5185 1.69064C27.9485 1.68584 28.3717 1.79937 28.7424 2.019Z" fill="#050505"/>
<path fill-rule="evenodd" clip-rule="evenodd" d="M10.4434 2.17255L15.9608 5.40595C16.2818 5.59408 16.5483 5.86381 16.7334 6.18819C16.9186 6.51257 17.016 6.88023 17.016 7.25444V13.884C17.0159 14.2977 16.9067 14.7039 16.6995 15.061C16.4923 15.4181 16.1946 15.7133 15.8369 15.9162L10.3609 19.0233C10.0037 19.2259 9.60038 19.3314 9.19048 19.3294C8.78058 19.3275 8.37824 19.2181 8.02297 19.0121L2.98008 16.0873C2.59077 15.8615 2.2674 15.5363 2.04253 15.1444C1.81767 14.7526 1.69925 14.308 1.69922 13.8554V7.56398C1.69918 7.10823 1.8148 6.66003 2.03511 6.26199C2.25541 5.86396 2.57307 5.52929 2.95789 5.28981L7.91543 2.20608C8.29432 1.97044 8.72959 1.84287 9.1748 1.83696C9.62002 1.83106 10.0585 1.94705 10.4434 2.17255Z" fill="#050505"/>
<path fill-rule="evenodd" clip-rule="evenodd" d="M65.8733 2.20044L71.2872 5.32524C71.604 5.50815 71.8674 5.77214 72.0505 6.09052C72.2337 6.4089 72.3301 6.77036 72.3301 7.13835V14.0501C72.3301 14.398 72.2375 14.7394 72.0619 15.0389C71.8863 15.3384 71.6341 15.5849 71.3318 15.7527L65.502 18.9882C65.197 19.1575 64.8539 19.2447 64.5057 19.2414C64.1576 19.2381 63.8161 19.1444 63.5144 18.9693L58.3909 15.9976C57.9721 15.7547 57.6244 15.405 57.3825 14.9835C57.1407 14.5621 57.0134 14.0839 57.0134 13.5971V7.74038C57.0134 7.20238 57.1519 6.67358 57.4154 6.20565C57.6788 5.73772 58.0583 5.34667 58.5166 5.07071L63.2432 2.22489C63.64 1.98596 64.0927 1.85776 64.555 1.85347C65.0172 1.84917 65.4722 1.96893 65.8733 2.20044Z" stroke="#050505" stroke-width="2"/>
<path fill-rule="evenodd" clip-rule="evenodd" d="M47.2034 2.10889L52.8607 5.35396C53.1642 5.52801 53.4165 5.77994 53.592 6.08414C53.7676 6.38834 53.86 6.73395 53.8599 7.08582V13.8646C53.86 14.2542 53.7568 14.6367 53.5609 14.9727C53.3651 15.3086 53.0837 15.5857 52.7459 15.7753L47.0882 18.9504C46.7665 19.1309 46.4038 19.224 46.0357 19.2205C45.6675 19.217 45.3066 19.117 44.9884 18.9305L39.8853 15.9371C39.4769 15.6976 39.1381 15.3544 38.9026 14.9417C38.6671 14.529 38.5432 14.0613 38.5432 13.5852V7.80647C38.5432 7.23377 38.6909 6.6709 38.9718 6.17306C39.2527 5.67522 39.6572 5.2595 40.1457 4.96667L44.8746 2.13125C45.2263 1.92041 45.6271 1.80726 46.0363 1.80334C46.4454 1.79941 46.8479 1.90484 47.2034 2.10889Z" stroke="#050505" stroke-width="2"/>
<path fill-rule="evenodd" clip-rule="evenodd" d="M28.7424 2.019L34.3958 5.36708C34.684 5.53778 34.9233 5.78103 35.0901 6.07296C35.2569 6.3649 35.3455 6.69551 35.3473 7.03237L35.3825 13.7708C35.3848 14.1885 35.2757 14.5992 35.0667 14.9599C34.8577 15.3206 34.5564 15.6182 34.1942 15.8215L28.6421 18.9368C28.3131 19.1214 27.9422 19.2166 27.5657 19.213C27.1892 19.2094 26.82 19.1072 26.4946 18.9164L21.391 15.923C20.99 15.6878 20.6573 15.3508 20.426 14.9455C20.1947 14.5402 20.073 14.0809 20.073 13.6134V7.63396C20.0729 7.11217 20.2052 6.59904 20.4574 6.14327C20.7095 5.68751 21.073 5.30423 21.5134 5.02984L26.3022 2.04621C26.668 1.81837 27.0885 1.69543 27.5185 1.69064C27.9485 1.68584 28.3717 1.79937 28.7424 2.019Z" stroke="#050505" stroke-width="2"/>
<path fill-rule="evenodd" clip-rule="evenodd" d="M10.4434 2.17255L15.9608 5.40595C16.2818 5.59408 16.5483 5.86381 16.7334 6.18819C16.9186 6.51257 17.016 6.88023 17.016 7.25444V13.884C17.0159 14.2977 16.9067 14.7039 16.6995 15.061C16.4923 15.4181 16.1946 15.7133 15.8369 15.9162L10.3609 19.0233C10.0037 19.2259 9.60038 19.3314 9.19048 19.3294C8.78058 19.3275 8.37824 19.2181 8.02297 19.0121L2.98008 16.0873C2.59077 15.8615 2.2674 15.5363 2.04253 15.1444C1.81767 14.7526 1.69925 14.308 1.69922 13.8554V7.56398C1.69918 7.10823 1.8148 6.66003 2.03511 6.26199C2.25541 5.86396 2.57307 5.52929 2.95789 5.28981L7.91543 2.20608C8.29432 1.97044 8.72959 1.84287 9.1748 1.83696C9.62002 1.83106 10.0585 1.94705 10.4434 2.17255Z" stroke="#050505" stroke-width="2"/>
</g>
<path id="Vector_2" d="M5.5293 5.50458V15.5741H7.61985V11.171H11.0882V15.5741H13.185V5.50458H11.0882V9.1724H7.61985V5.50458H5.5293Z" fill="white"/>
<g id="Vector_3">
<path fill-rule="evenodd" clip-rule="evenodd" d="M64.6922 5.33209C67.5273 5.33209 69.8291 7.65145 69.8291 10.5078C69.8291 13.3651 67.5273 15.6839 64.6922 15.6839C61.8575 15.6839 59.5552 13.3646 59.5552 10.5078C59.5552 7.65145 61.8575 5.33209 64.6922 5.33209ZM64.6922 7.25493C66.4741 7.25493 67.9204 8.71273 67.9204 10.5078C67.92 11.3704 67.5797 12.1975 66.9744 12.8074C66.3691 13.4174 65.5482 13.7602 64.6922 13.7606C62.9103 13.7606 61.464 12.3033 61.464 10.5078C61.4644 9.64527 61.8045 8.81819 62.4098 8.20826C63.015 7.59834 63.8362 7.25545 64.6922 7.25493ZM51.0059 10.4286C51.0059 12.7212 50.5748 13.3894 49.713 14.3442C48.8512 15.2991 47.7083 15.6839 46.2842 15.6839C44.9821 15.6839 43.9332 15.2184 43.0237 14.4093C42.0168 13.5128 41.2837 12.1235 41.2837 10.5729C41.2837 9.04851 41.8489 7.73115 42.8506 6.75005C43.7292 5.8914 45.0371 5.33209 46.3855 5.33209C48.014 5.33209 49.7048 6.10861 50.7469 7.64173L49.2168 8.94501C48.5681 7.72872 47.6282 7.31907 46.2837 7.2802C44.7969 7.23744 43.1602 8.66657 43.2817 10.5724C43.3492 11.6385 43.8435 13.471 46.2215 13.8073C47.4705 13.9837 48.8912 12.64 48.8912 11.9102H46.5441V10.0879H51.0049V10.4271L51.0059 10.4286ZM25.9139 5.8292V11.2799C25.9139 12.1449 25.9376 12.7052 25.9848 12.9617C26.0663 13.3738 26.2168 13.66 26.5235 13.9093C26.8307 14.1586 27.189 14.2295 27.7214 14.2295C28.2615 14.2295 28.4429 14.145 28.7177 13.9088C28.9921 13.6731 29.1576 13.4491 29.2135 13.1056C29.269 12.762 29.3615 12.192 29.3615 11.3961V5.8292H31.4005V11.1152C31.4005 12.3232 31.3489 13.177 31.2457 13.6756C31.1425 14.1746 30.9525 14.5954 30.6757 14.939C30.3989 15.2821 30.0285 15.5556 29.5651 15.7593C29.1011 15.9629 28.4964 16.0644 27.7494 16.0644C26.8476 16.0644 26.1642 15.9536 25.6988 15.7316C25.233 15.5095 24.8646 15.2213 24.5945 14.8666C24.324 14.5119 24.146 14.1401 24.0602 13.7509C23.9357 13.1746 23.873 12.3232 23.873 11.1973V5.8292H25.9139Z" fill="white"/>
</g>
</g>
</svg>
