<svg width="21" height="20" viewBox="0 0 21 20" fill="none" xmlns="http://www.w3.org/2000/svg">
<g id="Frame">
<path id="Vector" d="M17.3927 9.23541C17.369 9.13583 17.3207 9.0436 17.2523 8.96692C17.1838 8.89023 17.0973 8.83146 17.0004 8.79584L12.4801 7.11754L13.6304 1.4225C13.6564 1.29018 13.6383 1.15306 13.5787 1.03184C13.5191 0.910616 13.4213 0.811868 13.3 0.750495C13.1787 0.689121 13.0406 0.668452 12.9064 0.691607C12.7722 0.714762 12.6493 0.780484 12.5562 0.878855L3.76811 10.1984C3.69673 10.2729 3.6451 10.3637 3.61782 10.4627C3.59054 10.5617 3.58846 10.6658 3.61178 10.7658C3.63509 10.8658 3.68307 10.9586 3.75143 11.0357C3.81978 11.1129 3.90639 11.1721 4.0035 11.2081L8.52543 12.8864L7.37828 18.5752C7.35223 18.7075 7.37037 18.8446 7.42996 18.9658C7.48955 19.0871 7.58736 19.1858 7.70863 19.2472C7.8299 19.3086 7.96805 19.3292 8.10222 19.3061C8.2364 19.2829 8.35933 19.2172 8.45246 19.1188L17.2405 9.79924C17.3106 9.72479 17.3611 9.63443 17.3877 9.53612C17.4142 9.4378 17.416 9.33454 17.3927 9.23541Z" fill="#FA6318"/>
</g>
</svg>
