<svg width="17" height="16" viewBox="0 0 17 16" fill="none" xmlns="http://www.w3.org/2000/svg">
<g id="links-fill">
<path id="Vector" d="M9.03013 6.05512L9.73763 6.76262C10.0627 7.08763 10.3205 7.47348 10.4964 7.89814C10.6723 8.3228 10.7629 8.77796 10.7629 9.23762C10.7629 9.69727 10.6723 10.1524 10.4964 10.5771C10.3205 11.0018 10.0627 11.3876 9.73763 11.7126L9.56063 11.8891C8.90422 12.5455 8.01393 12.9143 7.08563 12.9143C6.15732 12.9143 5.26704 12.5455 4.61063 11.8891C3.95422 11.2327 3.58545 10.3424 3.58545 9.41412C3.58545 8.48581 3.95422 7.59553 4.61063 6.93912L5.31813 7.64662C5.08431 7.87839 4.89858 8.15407 4.77159 8.45782C4.6446 8.76157 4.57886 9.08741 4.57814 9.41663C4.57742 9.74586 4.64173 10.072 4.76739 10.3763C4.89305 10.6806 5.07757 10.9571 5.31037 11.1899C5.54317 11.4227 5.81965 11.6072 6.12396 11.7329C6.42826 11.8585 6.75438 11.9228 7.08361 11.9221C7.41284 11.9214 7.73868 11.8556 8.04243 11.7287C8.34618 11.6017 8.62185 11.4159 8.85363 11.1821L9.03063 11.0051C9.49931 10.5363 9.76259 9.90053 9.76259 9.23762C9.76259 8.57471 9.49931 7.93893 9.03063 7.47012L8.32313 6.76262L9.03063 6.05562L9.03013 6.05512ZM12.3891 9.06062L11.6821 8.35362C11.9159 8.12184 12.1017 7.84616 12.2287 7.54241C12.3557 7.23866 12.4214 6.91282 12.4221 6.5836C12.4228 6.25437 12.3585 5.92825 12.2329 5.62394C12.1072 5.31964 11.9227 5.04316 11.6899 4.81036C11.4571 4.57756 11.1806 4.39304 10.8763 4.26738C10.572 4.14172 10.2459 4.07741 9.91665 4.07813C9.58742 4.07885 9.26158 4.14459 8.95783 4.27158C8.65408 4.39857 8.3784 4.5843 8.14663 4.81812L7.96963 4.99512C7.50095 5.46394 7.23766 6.09971 7.23766 6.76262C7.23766 7.42553 7.50095 8.0613 7.96963 8.53012L8.67713 9.23762L7.96963 9.94462L7.26263 9.23762C6.93758 8.91261 6.67974 8.52675 6.50383 8.10209C6.32792 7.67743 6.23738 7.22227 6.23738 6.76262C6.23738 6.30296 6.32792 5.8478 6.50383 5.42314C6.67974 4.99848 6.93758 4.61263 7.26263 4.28762L7.43963 4.11112C8.09604 3.45471 8.98632 3.08594 9.91463 3.08594C10.8429 3.08594 11.7332 3.45471 12.3896 4.11112C13.046 4.76753 13.4148 5.65781 13.4148 6.58612C13.4148 7.51442 13.046 8.40471 12.3896 9.06112L12.3891 9.06062Z" fill="#050505"/>
</g>
</svg>
