<svg width="21" height="20" viewBox="0 0 21 20" fill="none" xmlns="http://www.w3.org/2000/svg">
<g id="Frame">
<path id="Vector" d="M17.8351 7.09834C17.8095 7.05963 17.7757 7.02711 17.736 7.00312C17.6963 6.97912 17.6517 6.96427 17.6056 6.95963C17.5594 6.95499 17.5128 6.96069 17.4692 6.9763C17.4255 6.99192 17.3858 7.01706 17.3531 7.0499L11.4609 12.9421C11.3416 13.0481 11.1864 13.1044 11.0269 13.0996C10.8674 13.0948 10.7158 13.0292 10.6032 12.9163C10.4905 12.8033 10.4253 12.6515 10.4209 12.4921C10.4165 12.3326 10.4733 12.1775 10.5796 12.0585L17.8218 4.81709C17.8799 4.75902 17.926 4.69008 17.9574 4.61421C17.9888 4.53834 18.005 4.45702 18.005 4.3749C18.005 4.29278 17.9888 4.21146 17.9574 4.13559C17.926 4.05972 17.8799 3.99078 17.8218 3.93271C17.7638 3.87464 17.6948 3.82858 17.6189 3.79716C17.5431 3.76573 17.4618 3.74955 17.3796 3.74955C17.2975 3.74955 17.2162 3.76573 17.1403 3.79716C17.0645 3.82858 16.9955 3.87464 16.9374 3.93271L15.8921 4.97881C14.4003 3.81371 12.5711 3.16354 10.6786 3.12577C8.78611 3.088 6.93237 3.66466 5.39526 4.7693C3.85816 5.87394 2.72052 7.44705 2.15289 9.25279C1.58525 11.0585 1.61821 12.9996 2.24682 14.7851C2.33294 15.0299 2.49272 15.242 2.70422 15.3924C2.91571 15.5427 3.16857 15.624 3.42807 15.6249H17.5742C17.8334 15.6251 18.0863 15.5446 18.2978 15.3947C18.5093 15.2448 18.6689 15.0328 18.7546 14.7882C19.2001 13.5215 19.3489 12.1695 19.1895 10.8363C19.0301 9.50307 18.5667 8.22424 17.8351 7.09834ZM4.98901 13.0007C5.02194 13.1631 4.989 13.332 4.89743 13.4702C4.80587 13.6083 4.66317 13.7044 4.50073 13.7374C4.45959 13.7458 4.41771 13.75 4.37573 13.7499C4.23167 13.7497 4.0921 13.6998 3.98063 13.6085C3.86916 13.5173 3.79264 13.3903 3.76401 13.2491C3.54051 12.1489 3.58965 11.0108 3.90715 9.93393C4.22464 8.8571 4.80083 7.87433 5.58545 7.07137C6.37007 6.26842 7.33927 5.66967 8.40848 5.32739C9.47769 4.98511 10.6144 4.90969 11.7195 5.10771C11.8826 5.13693 12.0275 5.22977 12.1222 5.3658C12.217 5.50184 12.2538 5.66993 12.2246 5.8331C12.1953 5.99627 12.1025 6.14116 11.9665 6.23588C11.8304 6.3306 11.6623 6.3674 11.4992 6.33818C10.5949 6.17629 9.66471 6.23812 8.78981 6.51829C7.91491 6.79845 7.12185 7.28843 6.47981 7.9455C5.83777 8.60256 5.36626 9.40674 5.1064 10.2879C4.84655 11.169 4.80624 12.1004 4.98901 13.0007Z" fill="#FA6318"/>
</g>
</svg>
