<svg width="136" height="36" viewBox="0 0 136 36" fill="none" xmlns="http://www.w3.org/2000/svg">
<g id="Frame 427321875">
<path id="Vector" d="M35.4323 36C35.84 36.0004 36.242 35.9034 36.6049 35.7171C36.9677 35.5307 37.281 35.2603 37.5188 34.9283C37.7566 34.5963 37.9119 34.2122 37.972 33.808C38.0321 33.4038 37.9952 32.9911 37.8643 32.6041V32.6072L27.4697 1.75033C27.2985 1.2406 26.972 0.797539 26.5363 0.483542C26.1006 0.169546 25.5776 0.000427879 25.0409 0H12.957C12.4203 0.000427879 11.8973 0.169546 11.4616 0.483542C11.0259 0.797539 10.6994 1.2406 10.5281 1.75033L0.135195 32.6057C0.0046248 32.9926 -0.0320659 33.4052 0.028163 33.8092C0.0883919 34.2131 0.243806 34.5969 0.48153 34.9287C0.719253 35.2605 1.03244 35.5308 1.39514 35.7171C1.75785 35.9034 2.15962 36.0004 2.56718 36H10.0737C10.6107 35.9999 11.134 35.8309 11.57 35.5169C12.0061 35.2029 12.3328 34.7597 12.5041 34.2497L14.051 29.6604L21.8838 35.4922C22.3271 35.8223 22.8623 36 23.4133 36M18.5303 16.1148L24.2682 33.1563C24.3117 33.285 24.324 33.4223 24.304 33.5567C24.2841 33.6911 24.2326 33.8189 24.1537 33.9294C24.0748 34.0399 23.9709 34.13 23.8504 34.1924C23.7299 34.2547 23.5963 34.2874 23.4608 34.2878L23.4133 34.2862C23.2297 34.2864 23.0509 34.2274 22.9034 34.118L8.19907 23.1685H15.883M25.8785 34.2862C26.0622 33.7688 26.0843 33.1849 25.8896 32.6072L15.4998 1.75033C15.4962 1.73973 15.4925 1.72915 15.4887 1.71859H25.0425C25.2212 1.71833 25.3956 1.77421 25.541 1.87839C25.6864 1.98257 25.7956 2.1298 25.8532 2.29939L36.2429 33.1563C36.3154 33.3714 36.2997 33.6065 36.1994 33.81C36.099 34.0135 35.9222 34.1687 35.7078 34.2417" fill="#050505"/>
<g id="Group">
<path id="Vector_2" d="M59.935 15.4991H57.4957V6.15338C57.4957 5.38731 57.544 4.4518 57.6404 3.343H57.5996C57.4473 3.97405 57.313 4.42701 57.1964 4.7033L52.773 15.4991H51.0778L46.6437 4.78417C46.5198 4.46888 46.3887 3.98849 46.2512 3.3442H46.2104C46.266 3.92183 46.2932 4.8648 46.2932 6.17384V15.4991H44.019V1.05753H47.4814L51.3781 10.6755C51.6741 11.4139 51.8672 11.965 51.9564 12.327H52.0079C52.2629 11.5681 52.4693 11.0037 52.628 10.6345L56.5972 1.05753H59.9357L59.9347 15.4991H59.935ZM64.5139 3.02097C64.1214 3.02097 63.7845 2.89727 63.5064 2.64865C63.2271 2.40027 63.0877 2.08426 63.0877 1.70183C63.0877 1.31939 63.2271 1.00025 63.5064 0.744654C63.7857 0.490018 64.1214 0.361978 64.5139 0.361978C64.92 0.361978 65.2654 0.490018 65.5476 0.744654C65.8299 1.00025 65.9717 1.31819 65.9717 1.70183C65.9717 2.0638 65.8299 2.37476 65.5476 2.63324C65.2642 2.89221 64.92 3.02097 64.5139 3.02097ZM65.7019 15.4991H63.3048V5.1861H65.7021V15.4991H65.7019ZM76.4205 15.0257C75.5735 15.5022 74.5702 15.7405 73.4126 15.7405C71.8416 15.7405 70.5737 15.262 69.609 14.3058C68.6447 13.3496 68.1618 12.1092 68.1618 10.5845C68.1618 8.88578 68.6804 7.52163 69.7173 6.49057C70.7544 5.45999 72.1406 4.94446 73.8775 4.94446C74.842 4.94446 75.693 5.10909 76.43 5.43857V7.61357C75.6921 7.07686 74.9071 6.80778 74.074 6.80778C73.0611 6.80778 72.2309 7.14232 71.5834 7.80996C70.9359 8.47784 70.6114 9.35222 70.6114 10.4331C70.6114 11.5007 70.9157 12.3433 71.5256 12.9609C72.1352 13.5787 72.9538 13.8875 73.9804 13.8875C74.842 13.8875 75.6542 13.5891 76.4193 12.9917L76.4205 15.0257ZM84.9466 7.41212C84.6568 7.19022 84.2403 7.07999 83.6957 7.07999C82.986 7.07999 82.3931 7.39166 81.9178 8.01646C81.4422 8.64029 81.2042 9.49012 81.2042 10.564V15.4991H78.8059V5.1861H81.2042V7.31104H81.245C81.4791 6.58588 81.8391 6.02029 82.3249 5.61427C82.8106 5.20849 83.3535 5.00487 83.9527 5.00487C84.3872 5.00487 84.7178 5.06937 84.9456 5.19621L84.9466 7.41212ZM91.3547 15.7405C89.7218 15.7405 88.4182 15.2589 87.4423 14.2955C86.4673 13.3323 85.9793 12.0548 85.9793 10.4639C85.9793 8.73127 86.4872 7.37843 87.5042 6.40489C88.5212 5.43135 89.8896 4.94446 91.6129 4.94446C93.2669 4.94446 94.5547 5.41811 95.4782 6.36494C96.4019 7.312 96.8627 8.62393 96.8627 10.3022C96.8627 11.9477 96.3652 13.2649 95.3691 14.2546C94.3743 15.2457 93.0362 15.7405 91.3547 15.7405ZM91.4681 6.80778C90.5311 6.80778 89.79 7.12692 89.2464 7.76399C88.7016 8.40202 88.4298 9.28146 88.4298 10.4023C88.4298 11.4832 88.7057 12.3342 89.2569 12.9549C89.8077 13.5756 90.5456 13.8863 91.4691 13.8863C92.4139 13.8863 93.1389 13.5807 93.6449 12.9703C94.1506 12.3587 94.4046 11.4894 94.4046 10.3614C94.4046 9.22731 94.1518 8.351 93.6449 7.73318C93.138 7.11657 92.4127 6.80778 91.4681 6.80778ZM98.652 15.1771V13.0122C99.5483 13.6769 100.537 14.0091 101.618 14.0091C103.065 14.0091 103.788 13.5929 103.788 12.7604C103.788 12.5253 103.726 12.326 103.603 12.1612C103.479 11.9965 103.312 11.8504 103.101 11.7236C102.89 11.5968 102.642 11.4822 102.357 11.3811C102.07 11.2798 101.752 11.1662 101.401 11.0384C100.998 10.8853 100.607 10.707 100.227 10.5046C99.8788 10.3164 99.5903 10.1039 99.3593 9.86558C99.1318 9.633 98.9544 9.35706 98.8378 9.0545C98.7203 8.75293 98.6624 8.39986 98.6624 7.99721C98.6624 7.50021 98.7832 7.06242 99.0244 6.68311C99.266 6.30356 99.5891 5.98467 99.9954 5.7269C100.402 5.46817 100.863 5.27395 101.381 5.14302C101.904 5.01125 102.442 4.94527 102.982 4.94663C103.96 4.94663 104.835 5.09079 105.607 5.37912V7.42343C104.863 6.92643 104.009 6.67782 103.044 6.67782C102.741 6.67782 102.467 6.70862 102.222 6.76783C101.978 6.82824 101.769 6.91224 101.597 7.01958C101.425 7.12692 101.29 7.25568 101.194 7.40707C101.098 7.55578 101.048 7.72883 101.049 7.90527C101.049 8.12693 101.097 8.31514 101.194 8.46966C101.29 8.62393 101.433 8.75991 101.623 8.8776C101.812 8.99529 102.04 9.10264 102.305 9.19963C102.571 9.29686 102.875 9.40324 103.22 9.51684C103.638 9.68119 104.047 9.86618 104.445 10.0711C104.807 10.2591 105.116 10.4718 105.371 10.7101C105.622 10.9428 105.822 11.224 105.96 11.5364C106.097 11.8483 106.166 12.2196 106.166 12.649C106.166 13.1727 106.043 13.6286 105.794 14.0185C105.546 14.4081 105.215 14.7301 104.802 14.9848C104.389 15.2404 103.911 15.4295 103.371 15.5533C102.829 15.6782 102.259 15.7395 101.66 15.7395C100.501 15.7405 99.499 15.5533 98.652 15.1771ZM113.142 15.7405C111.51 15.7405 110.205 15.2589 109.23 14.2955C108.255 13.3323 107.768 12.0548 107.768 10.4639C107.768 8.73127 108.276 7.37843 109.293 6.40489C110.309 5.43135 111.678 4.94446 113.401 4.94446C115.055 4.94446 116.342 5.41811 117.266 6.36494C118.189 7.312 118.651 8.62393 118.651 10.3022C118.651 11.9477 118.154 13.2649 117.158 14.2546C116.162 15.2457 114.823 15.7405 113.142 15.7405ZM113.256 6.80778C112.319 6.80778 111.577 7.12692 111.033 7.76399C110.488 8.40202 110.216 9.28146 110.216 10.4023C110.216 11.4832 110.493 12.3342 111.043 12.9549C111.595 13.5756 112.332 13.8863 113.256 13.8863C114.199 13.8863 114.924 13.5807 115.431 12.9703C115.938 12.3587 116.191 11.4894 116.191 10.3614C116.191 9.22731 115.938 8.351 115.431 7.73318C114.924 7.11657 114.199 6.80778 113.256 6.80778ZM127.085 2.13528C126.762 1.95429 126.392 1.86332 125.979 1.86332C124.814 1.86332 124.232 2.50448 124.232 3.78681V5.18682H126.692V7.01958H124.243V15.4991H121.845V7.01958H120.037V5.18682H121.845V3.51484C121.845 2.42698 122.21 1.56993 122.941 0.942009C123.671 0.313842 124.584 0 125.68 0C126.273 0 126.741 0.0635387 127.085 0.191338V2.13528ZM133.999 15.3886C133.531 15.6168 132.914 15.7314 132.149 15.7314C130.096 15.7314 129.07 14.7711 129.07 12.8517V7.02054H127.302V5.18803H129.07V2.801L131.468 2.13649V5.18803H134V7.02054H131.468V12.1763C131.468 12.7869 131.581 13.2235 131.809 13.4854C132.037 13.7472 132.415 13.8781 132.946 13.8781C133.352 13.8781 133.703 13.7645 133.999 13.5354V15.3886Z" fill="#050505"/>
<path id="Subtract" fill-rule="evenodd" clip-rule="evenodd" d="M57.8376 35.7551H55.1387L53.8048 32.0241H47.972L46.6897 35.7551H44L49.5535 21.099H52.3251L57.8376 35.7551ZM67.4356 26.2808L61.7162 33.9046H67.4147V35.7551H58.3543V34.8657L64.1978 27.1391H58.9131V25.2886H67.4356V26.2808ZM76.2995 35.7551H78.6982L78.7004 25.2886H76.3005V31.3092C76.3005 32.1477 76.0715 32.8255 75.6127 33.3433C75.1538 33.8611 74.5697 34.1195 73.86 34.1195C72.3905 34.1195 71.6564 33.1794 71.6564 31.2987V25.2886H69.2568V31.5437C69.2568 34.515 70.5085 36 73.0115 36C74.4795 36 75.5623 35.366 76.2587 34.0988H76.2995V35.7551ZM87.9759 27.548C87.6861 27.3228 87.2691 27.2109 86.7241 27.2109C86.0142 27.2109 85.4206 27.5272 84.945 28.1613C84.4693 28.7944 84.2309 29.6568 84.2309 30.7467V35.7551H81.8319V25.2889H84.2309V27.4454H84.2717C84.506 26.7094 84.8662 26.1355 85.3523 25.7234C85.8387 25.3116 86.3817 25.105 86.9813 25.105C87.4151 25.105 87.7469 25.1704 87.9737 25.2991L87.9761 27.548H87.9759ZM91.4404 31.1658H98.6596L98.6605 30.2557C98.6605 28.62 98.2636 27.3425 97.4708 26.4229C96.6777 25.5036 95.5582 25.0437 94.1101 25.0437C92.6617 25.0437 91.4499 25.5563 90.4742 26.5817C89.4974 27.6071 89.0101 28.9346 89.0101 30.563C89.0101 32.2867 89.4522 33.6235 90.3386 34.5741C91.225 35.5247 92.4464 36 94.0051 36C95.591 36 96.867 35.7001 97.832 35.1002V33.1897C96.8877 33.857 95.8501 34.1911 94.7192 34.1911C93.7119 34.1911 92.9211 33.9285 92.3455 33.4044C91.769 32.8792 91.4676 32.133 91.4404 31.1658ZM50.8578 23.1896L53.1527 30.042H48.6133L50.8578 23.1896ZM96.3432 29.4898C96.3327 28.6379 96.1332 27.9755 95.7331 27.5023C95.3327 27.0292 94.7815 26.7925 94.0778 26.7925C93.3887 26.7925 92.8036 27.0417 92.3247 27.5387C91.8459 28.0358 91.5508 28.6867 91.4404 29.4908H96.3432V29.4898Z" fill="#050505"/>
</g>
</g>
</svg>
