<svg width="136" height="28" viewBox="0 0 136 28" fill="none" xmlns="http://www.w3.org/2000/svg">
<g id="Frame" clip-path="url(#clip0_4_6975)">
<path id="Vector" d="M90.4087 0.0115967H114.098V4.50114H104.7V28.12H100.002V4.50114H90.4087V0.0115967Z" fill="#050505"/>
<path id="Vector_2" d="M51.4495 0.0115967V4.50114H32.4613V11.7234H47.7316V16.213H32.4613V23.6305H51.4495V28.12H27.7627V4.50114H27.7607V0.0115967H51.4495Z" fill="#050505"/>
<path id="Vector_3" d="M63.2779 0.0234375H57.1289L79.1533 28.1319H85.3203L74.3067 14.0873L85.3027 0.0448825L79.1533 0.0546399L71.228 10.1614L63.2779 0.0234375Z" fill="#050505"/>
<path id="Vector_4" d="M69.5878 20.1015L66.5084 16.1702L57.1113 28.1534H63.2779L69.5878 20.1015Z" fill="#050505"/>
<path id="Vector_5" fill-rule="evenodd" clip-rule="evenodd" d="M27.9273 28.1202L5.87323 0H0V28.1084H4.69859V6.00816L22.0246 28.1202H27.9273Z" fill="#050505"/>
<path id="Vector_6" d="M115.154 27.9485C114.81 27.9485 114.517 27.8261 114.272 27.5813C114.027 27.3365 113.906 27.0401 113.909 26.689C113.906 26.3476 114.027 26.0544 114.272 25.8096C114.517 25.5648 114.81 25.4424 115.154 25.4424C115.485 25.4424 115.774 25.5648 116.02 25.8096C116.268 26.0544 116.392 26.3476 116.395 26.689C116.392 26.9209 116.335 27.1335 116.22 27.3236C116.102 27.5169 115.953 27.6683 115.765 27.7778C115.58 27.8905 115.376 27.9485 115.154 27.9485Z" fill="#050505"/>
<path id="Vector_7" d="M123.173 16.1072H125.255V24.3439C125.252 25.1009 125.093 25.7484 124.781 26.2928C124.466 26.8371 124.03 27.2526 123.469 27.5458C122.912 27.8357 122.26 27.9839 121.518 27.9839C120.84 27.9839 120.232 27.8582 119.69 27.6134C119.149 27.3686 118.719 27.0014 118.404 26.5182C118.086 26.035 117.93 25.4327 117.93 24.7111H120.015C120.018 25.0268 120.088 25.3006 120.222 25.5293C120.356 25.758 120.54 25.9319 120.776 26.0543C121.015 26.1768 121.289 26.238 121.597 26.238C121.932 26.238 122.218 26.1671 122.45 26.0221C122.683 25.8804 122.861 25.6678 122.986 25.3843C123.106 25.1041 123.17 24.7562 123.173 24.3439V16.1072Z" fill="#050505"/>
<path id="Vector_8" d="M133.822 19.3284C133.771 18.8291 133.548 18.4394 133.16 18.1623C132.768 17.8821 132.262 17.7436 131.641 17.7436C131.205 17.7436 130.83 17.8112 130.518 17.9433C130.206 18.0786 129.964 18.259 129.798 18.4877C129.633 18.7164 129.55 18.9773 129.543 19.2705C129.543 19.5153 129.601 19.7279 129.712 19.905C129.824 20.0854 129.973 20.2368 130.167 20.3592C130.358 20.4848 130.572 20.5879 130.804 20.6717C131.04 20.7554 131.275 20.8263 131.511 20.8843L132.596 21.1581C133.033 21.2612 133.456 21.3997 133.86 21.5768C134.265 21.7508 134.631 21.9731 134.952 22.2404C135.274 22.5078 135.529 22.8299 135.716 23.2068C135.904 23.5837 136 24.025 136 24.5339C136 25.22 135.828 25.8224 135.481 26.3443C135.134 26.8629 134.634 27.2687 133.978 27.5619C133.325 27.8518 132.536 28 131.606 28C130.709 28 129.925 27.8583 129.266 27.5748C128.604 27.2946 128.088 26.8822 127.716 26.341C127.343 25.7999 127.143 25.1395 127.114 24.3632H129.177C129.206 24.7691 129.333 25.1073 129.55 25.3811C129.769 25.6517 130.056 25.8514 130.406 25.9867C130.76 26.1188 131.154 26.1864 131.591 26.1864C132.046 26.1864 132.447 26.1155 132.794 25.977C133.138 25.8385 133.408 25.6453 133.603 25.394C133.8 25.146 133.899 24.8528 133.902 24.5178C133.899 24.2118 133.809 23.9573 133.637 23.7576C133.462 23.5579 133.22 23.3904 132.912 23.2551C132.6 23.1198 132.237 22.9974 131.823 22.8911L130.505 22.5496C129.553 22.3016 128.798 21.9248 128.247 21.419C127.694 20.9133 127.42 20.2433 127.42 19.4025C127.42 18.7132 127.604 18.1076 127.977 17.589C128.346 17.0704 128.853 16.6677 129.493 16.381C130.136 16.0911 130.862 15.9493 131.67 15.9493C132.491 15.9493 133.211 16.0911 133.832 16.381C134.452 16.6677 134.94 17.0671 135.293 17.5761C135.646 18.085 135.831 18.6681 135.841 19.3284H133.822Z" fill="#050505"/>
</g>
<defs>
<clipPath id="clip0_4_6975">
<rect width="136" height="28" fill="white"/>
</clipPath>
</defs>
</svg>
