<svg width="72" height="18" viewBox="0 0 72 18" fill="none" xmlns="http://www.w3.org/2000/svg">
<g id="Frame" clip-path="url(#clip0_4_7031)">
<path id="Vector" d="M33.93 18C34.1244 18 34.29 17.8388 34.29 17.64V9.27C34.29 9.27 34.74 10.08 35.55 11.43L39.06 17.46C39.2206 17.7966 39.577 18 39.87 18H42.3V4.5H39.87C39.7082 4.5 39.51 4.63447 39.51 4.86V13.32L37.89 10.44L34.65 4.95C34.4923 4.67021 34.1531 4.5 33.84 4.5H31.5V18H33.93Z" fill="#050505"/>
<path id="Vector_2" d="M65.3398 8.28002H66.5098C66.8081 8.28002 67.0498 8.03826 67.0498 7.74002V5.40002H69.5698V8.28002H71.9998V10.44H69.5698V14.31C69.5698 15.255 70.025 15.66 70.8298 15.66H71.9998V18H70.4698C68.3952 18 67.0498 16.6564 67.0498 14.4V10.44H65.3398V8.28002Z" fill="#050505"/>
<path id="Vector_3" d="M53.1898 8.27996V13.86C53.1898 15.1203 52.7166 16.1828 52.0198 16.92C51.323 17.6572 50.3608 18 49.0498 18C47.7389 18 46.6866 17.6572 45.9898 16.92C45.3048 16.1828 44.8198 15.1203 44.8198 13.86V8.27996H46.2598C46.5669 8.27996 46.869 8.33594 47.0698 8.54996C47.2706 8.7521 47.3398 8.87083 47.3398 9.17996V13.86C47.3398 14.5853 47.381 15.0333 47.6998 15.39C48.0187 15.7348 48.4121 15.84 49.0498 15.84C49.6994 15.84 49.991 15.7348 50.3098 15.39C50.6287 15.0333 50.6698 14.5853 50.6698 13.86V9.17996C50.6698 8.87083 50.739 8.67398 50.9398 8.45996C51.1162 8.27193 51.3023 8.27636 51.5698 8.27996C51.6068 8.28046 51.7126 8.27996 51.7498 8.27996H53.1898Z" fill="#050505"/>
<path id="Vector_4" d="M60.8402 12.96L63.9002 8.28003H61.5602C61.2653 8.28003 61.0033 8.38585 60.8402 8.64003L59.4002 10.8L58.0502 8.73003C57.8871 8.47585 57.5351 8.28003 57.2402 8.28003H54.9902L58.0502 12.87L54.7202 18H57.0602C57.3527 18 57.6166 17.7109 57.7802 17.46L59.4002 15.03L61.1102 17.55C61.2738 17.8009 61.5377 18 61.8302 18H64.1702L60.8402 12.96Z" fill="#050505"/>
<path id="Vector_5" d="M15.12 18H25.11C25.4288 18 25.7339 17.888 26.01 17.73C26.2861 17.572 26.5707 17.3737 26.73 17.1C26.8893 16.8263 27.0002 16.5159 27 16.1999C26.9998 15.8839 26.8896 15.5736 26.73 15.3001L19.98 3.69C19.8207 3.4164 19.626 3.21797 19.35 3.06C19.074 2.90203 18.6788 2.79 18.36 2.79C18.0412 2.79 17.736 2.90203 17.46 3.06C17.184 3.21797 16.9893 3.4164 16.83 3.69L15.12 6.66L11.7 0.899788C11.5405 0.626206 11.3461 0.337942 11.07 0.18C10.7939 0.0220578 10.4888 0 10.17 0C9.85122 0 9.54612 0.0220578 9.27 0.18C8.99391 0.337942 8.70945 0.626206 8.55 0.899788L0.180001 15.3001C0.0204286 15.5736 0.000139394 15.8839 6.84724e-07 16.1999C-0.000138024 16.5159 0.0206688 16.8263 0.180001 17.1C0.339332 17.3736 0.623921 17.572 0.900001 17.73C1.17608 17.888 1.4812 18 1.8 18H8.1C10.5963 18 12.4133 16.8802 13.68 14.76L16.74 9.45L18.36 6.66L23.31 15.12H16.74L15.12 18ZM8.01 15.12H3.6L10.17 3.78L13.5 9.45L11.2942 13.2953C10.453 14.6709 9.49392 15.12 8.01 15.12Z" fill="#050505"/>
</g>
<defs>
<clipPath id="clip0_4_7031">
<rect width="72" height="18" fill="white"/>
</clipPath>
</defs>
</svg>
