<svg width="136" height="36" viewBox="0 0 136 36" fill="none" xmlns="http://www.w3.org/2000/svg">
<g id="openai-lockup 2" clip-path="url(#clip0_4_6902)">
<path id="Vector" d="M42.3486 17.307C42.3486 23.193 46.2212 27.297 51.5874 27.297C56.9537 27.297 60.8262 23.193 60.8262 17.307C60.8262 11.421 56.9537 7.31702 51.5874 7.31702C46.2212 7.31702 42.3486 11.421 42.3486 17.307ZM57.2856 17.307C57.2856 21.519 54.9344 24.246 51.5874 24.246C48.2404 24.246 45.8892 21.519 45.8892 17.307C45.8892 13.095 48.2404 10.368 51.5874 10.368C54.9344 10.368 57.2856 13.095 57.2856 17.307Z" fill="#050505"/>
<path id="Vector_2" d="M70.7969 27.297C74.8631 27.297 77.1866 23.949 77.1866 19.926C77.1866 15.903 74.8631 12.555 70.7969 12.555C68.916 12.555 67.5329 13.284 66.6201 14.337V12.825H63.3008V31.86H66.6201V25.515C67.5329 26.568 68.916 27.297 70.7969 27.297ZM66.5371 19.521C66.5371 16.848 68.0861 15.39 70.1331 15.39C72.5396 15.39 73.8396 17.226 73.8396 19.926C73.8396 22.626 72.5396 24.462 70.1331 24.462C68.0861 24.462 66.5371 22.977 66.5371 20.358V19.521Z" fill="#050505"/>
<path id="Vector_3" d="M86.1698 27.297C89.0742 27.297 91.37 25.812 92.3935 23.328L89.5444 22.275C89.1018 23.733 87.8018 24.543 86.1698 24.543C84.0399 24.543 82.5462 23.058 82.2972 20.628H92.4765V19.548C92.4765 15.66 90.2359 12.555 86.0315 12.555C81.827 12.555 79.1162 15.768 79.1162 19.926C79.1162 24.3 82.0206 27.297 86.1698 27.297ZM86.0038 15.282C88.106 15.282 89.1018 16.632 89.1295 18.198H82.4632C82.9611 16.281 84.2888 15.282 86.0038 15.282Z" fill="#050505"/>
<path id="Vector_4" d="M94.9668 27H98.2861V18.684C98.2861 16.659 99.8075 15.579 101.301 15.579C103.127 15.579 103.846 16.848 103.846 18.603V27H107.165V17.658C107.165 14.607 105.34 12.555 102.297 12.555C100.416 12.555 99.116 13.392 98.2861 14.337V12.825H94.9668V27Z" fill="#050505"/>
<path id="Vector_5" d="M116.887 7.61401L109.363 27H112.876L114.564 22.572H123.138L124.853 27H128.422L120.898 7.61401H116.887ZM118.823 11.448L121.977 19.548H115.725L118.823 11.448Z" fill="#050505"/>
<path id="Vector_6" d="M134.121 7.67023H130.58V27.0562H134.121V7.67023Z" fill="#050505"/>
<path id="Vector_7" d="M34.2371 14.7341C35.0738 12.2827 34.7857 9.59736 33.4476 7.36761C31.4352 3.94761 27.3898 2.18811 23.4389 3.01611C21.6813 1.08336 19.1561 -0.0157661 16.5087 -1.61293e-05C12.4702 -0.00901613 8.8869 2.52898 7.64446 6.27973C5.05009 6.79836 2.8107 8.38348 1.50026 10.6301C-0.527063 14.0411 -0.0648935 18.3409 2.64358 21.2659C1.80684 23.7172 2.09497 26.4026 3.43307 28.6324C5.44541 32.0524 9.49084 33.8119 13.4418 32.9839C15.1982 34.9166 17.7246 36.0157 20.372 35.9989C24.4128 36.009 27.9972 33.4687 29.2397 29.7146C31.834 29.196 34.0734 27.6109 35.3839 25.3642C37.4089 21.9532 36.9456 17.6569 34.2382 14.7319L34.2371 14.7341ZM20.3743 33.6465C18.7573 33.6487 17.191 33.0964 15.9497 32.085C16.0062 32.0557 16.1041 32.0029 16.1675 31.9646L23.5115 27.8246C23.8872 27.6165 24.1178 27.2261 24.1154 26.8042V16.6984L27.2192 18.4477C27.2527 18.4635 27.2746 18.495 27.2792 18.531V26.8999C27.2746 30.6214 24.1869 33.6386 20.3743 33.6465ZM5.52494 27.4556C4.7147 26.0899 4.42311 24.489 4.70087 22.9354C4.75504 22.9669 4.8507 23.0242 4.9187 23.0625L12.2627 27.2025C12.635 27.4151 13.096 27.4151 13.4694 27.2025L22.435 22.149V25.6477C22.4373 25.6837 22.4201 25.7186 22.3912 25.7411L14.9677 29.925C11.6611 31.7835 7.43816 30.6787 5.52609 27.4556H5.52494ZM3.59212 11.808C4.3989 10.44 5.67246 9.39373 7.18921 8.85036C7.18921 8.91223 7.18575 9.02136 7.18575 9.09786V17.379C7.18345 17.7997 7.41395 18.1901 7.78853 18.3982L16.7542 23.4506L13.6504 25.2C13.6192 25.2202 13.5801 25.2236 13.5455 25.209L6.1208 21.0217C2.82107 19.1565 1.68928 15.0356 3.59097 11.8091L3.59212 11.808ZM29.0933 17.6006L20.1277 12.5471L23.2314 10.7989C23.2626 10.7786 23.3018 10.7752 23.3363 10.7899L30.761 14.9737C34.0665 16.8379 35.1994 20.9655 33.2897 24.192C32.4818 25.5577 31.2093 26.604 29.6938 27.1485V18.6199C29.6972 18.1991 29.4679 17.8099 29.0944 17.6006H29.0933ZM32.1821 13.0624C32.1279 13.0297 32.0323 12.9735 31.9643 12.9352L24.6203 8.79523C24.248 8.58261 23.787 8.58261 23.4135 8.79523L14.4479 13.8487V10.35C14.4456 10.314 14.4629 10.2791 14.4917 10.2566L21.9152 6.07611C25.2219 4.21423 29.4494 5.32236 31.3557 8.55111C32.1613 9.91461 32.4529 11.511 32.1798 13.0624H32.1821ZM12.7606 19.2982L9.65565 17.5489C9.62223 17.5331 9.60033 17.5016 9.59572 17.4656V9.09674C9.59802 5.37073 12.6949 2.35123 16.5121 2.35348C18.1268 2.35348 19.6897 2.90698 20.931 3.91498C20.8745 3.94423 20.7777 3.99711 20.7131 4.03536L13.3691 8.17536C12.9934 8.38348 12.7629 8.77273 12.7652 9.19461L12.7606 19.296V19.2982ZM14.4468 15.75L18.4403 13.4989L22.4339 15.7489V20.25L18.4403 22.5L14.4468 20.25V15.75Z" fill="#050505"/>
</g>
<defs>
<clipPath id="clip0_4_6902">
<rect width="136" height="36" fill="white"/>
</clipPath>
</defs>
</svg>
