<svg width="132" height="40" viewBox="0 0 132 40" fill="none" xmlns="http://www.w3.org/2000/svg">
<g id="logo 1" clip-path="url(#clip0_4_6932)">
<g id="Clip path group">
<mask id="mask0_4_6932" style="mask-type:luminance" maskUnits="userSpaceOnUse" x="0" y="0" width="150" height="40">
<g id="clip0_3098_947">
<path id="Vector" d="M149.434 0H0V40H149.434V0Z" fill="white"/>
</g>
</mask>
<g mask="url(#mask0_4_6932)">
<g id="Group">
<g id="Clip path group_2">
<mask id="mask1_4_6932" style="mask-type:luminance" maskUnits="userSpaceOnUse" x="0" y="0" width="150" height="40">
<g id="clip1_3098_947">
<path id="Vector_2" d="M149.434 0H0V40H149.434V0Z" fill="white"/>
</g>
</mask>
<g mask="url(#mask1_4_6932)">
<g id="Group_2">
<path id="Vector_3" fill-rule="evenodd" clip-rule="evenodd" d="M0.292589 25.3483C-0.103148 25.9963 -0.0970238 26.8139 0.308377 27.4557L7.64601 39.0745C8.12223 39.8285 9.04018 40.1724 9.89213 39.9159L31.0668 33.5394C32.2223 33.1914 32.8037 31.8975 32.2987 30.7976L18.6866 1.15802C18.0227 -0.28743 16.0216 -0.406079 15.1928 0.95088L0.292589 25.3483ZM18.325 7.93395C18.0356 7.26197 17.0559 7.36547 16.9123 8.08319L11.6717 34.2759C11.5612 34.8281 12.0763 35.2998 12.6141 35.1386L27.2441 30.7549C27.6711 30.627 27.8911 30.1535 27.7143 29.7429L18.325 7.93395Z" fill="#050505"/>
<path id="Vector_4" fill-rule="evenodd" clip-rule="evenodd" d="M55.4594 16.9217C55.4594 18.9569 54.8261 20.5131 53.5584 21.5911C52.2915 22.6694 50.4896 23.2079 48.1531 23.2079H46.439V29.9344H42.4443V11.0232H48.462C50.7476 11.0232 52.4849 11.5169 53.6748 12.5039C54.8647 13.4914 55.4594 14.9641 55.4594 16.9217ZM46.4396 19.9229H47.7541C48.9827 19.9229 49.9015 19.6794 50.5117 19.1921C51.1218 18.7048 51.4267 17.9954 51.4267 17.0641C51.4267 16.1246 51.1709 15.4303 50.66 14.9818C50.1485 14.5333 49.3477 14.3089 48.2564 14.3089H46.4396V19.9229Z" fill="#050505"/>
<path id="Vector_5" d="M67.3755 15.3173C67.0232 15.2397 66.581 15.2008 66.0481 15.2008C65.1544 15.2008 64.3276 15.4488 63.5678 15.9444C62.8069 16.4404 62.2036 17.0941 61.7568 17.9043H61.5639L60.9837 15.4726H58.0068V29.9342H61.9374V22.5742C61.9374 21.4099 62.2874 20.5042 62.9871 19.8574C63.6879 19.2107 64.6649 18.8873 65.9194 18.8873C66.3748 18.8873 66.7612 18.9307 67.0792 19.0166L67.3755 15.3173Z" fill="#050505"/>
<path id="Vector_6" d="M69.4629 29.9344H73.3934V15.4728H69.4629V29.9344Z" fill="#050505"/>
<path id="Vector_7" d="M69.2949 11.7342C69.2949 10.4493 70.008 9.80713 71.4339 9.80713C72.8595 9.80713 73.5731 10.4493 73.5731 11.7342C73.5731 12.3467 73.3948 12.823 73.0384 13.1638C72.6817 13.5045 72.147 13.6744 71.4339 13.6744C70.008 13.6744 69.2949 13.0276 69.2949 11.7342Z" fill="#050505"/>
<path id="Vector_8" d="M85.6899 29.0284C86.7169 28.2524 87.2301 27.1229 87.2301 25.6394C87.2301 24.9237 87.1059 24.3071 86.8565 23.7896C86.6072 23.2721 86.2204 22.8153 85.6967 22.4184C85.173 22.0219 84.348 21.5953 83.2223 21.1382C81.9596 20.6293 81.1414 20.2452 80.7675 19.9867C80.3942 19.7282 80.2068 19.4221 80.2068 19.0682C80.2068 18.4387 80.787 18.1241 81.9469 18.1241C82.5994 18.1241 83.2396 18.2232 83.8666 18.4214C84.4936 18.6201 85.1684 18.8741 85.8901 19.1846L87.0754 16.3391C85.4347 15.5804 83.7464 15.2008 82.011 15.2008C80.1895 15.2008 78.783 15.5521 77.7911 16.2551C76.7982 16.9579 76.3022 17.9514 76.3022 19.2362C76.3022 19.9867 76.4205 20.6183 76.6572 21.1313C76.8929 21.6447 77.271 22.0996 77.7911 22.4961C78.3103 22.8929 79.1248 23.3242 80.2327 23.7896C81.0058 24.1176 81.6247 24.4039 82.0883 24.6497C82.5524 24.8958 82.8787 25.1156 83.068 25.3097C83.2569 25.5037 83.3515 25.7558 83.3515 26.0664C83.3515 26.8941 82.638 27.3079 81.212 27.3079C80.5163 27.3079 79.7108 27.1914 78.7962 26.9589C77.8808 26.7261 77.0585 26.4373 76.3281 26.0921V29.3518C76.9725 29.6277 77.6641 29.8369 78.403 29.9789C79.142 30.1214 80.0349 30.1927 81.0831 30.1927C83.1276 30.1927 84.6633 29.8046 85.6899 29.0284Z" fill="#050505"/>
<path id="Vector_9" d="M102.799 29.9342H98.8689V21.4876C98.8689 20.4443 98.6946 19.6614 98.3474 19.1398C97.9988 18.6182 97.4514 18.3569 96.7039 18.3569C95.6992 18.3569 94.9688 18.7278 94.5133 19.4697C94.0579 20.2114 93.8304 21.4313 93.8304 23.1304V29.9342H89.8999V15.4726H92.9025L93.4309 17.3224H93.6502C94.0365 16.6583 94.5952 16.1386 95.3251 15.7636C96.0555 15.3886 96.8932 15.2008 97.8382 15.2008C99.9947 15.2008 101.455 15.9083 102.22 17.3224H102.567C102.954 16.6497 103.523 16.1281 104.275 15.7572C105.027 15.3863 105.875 15.2008 106.82 15.2008C108.452 15.2008 109.688 15.6216 110.525 16.4619C111.362 17.3028 111.781 18.6502 111.781 20.5042V29.9342H107.838V21.4876C107.838 20.4443 107.664 19.6614 107.316 19.1398C106.968 18.6182 106.42 18.3569 105.673 18.3569C104.711 18.3569 103.992 18.7023 103.514 19.3919C103.038 20.0822 102.799 21.1769 102.799 22.6774V29.9342Z" fill="#050505"/>
<path id="Vector_10" fill-rule="evenodd" clip-rule="evenodd" d="M123.617 27.9682L124.377 29.9344H127.122V20.2974C127.122 18.5728 126.607 17.2879 125.575 16.4429C124.544 15.5979 123.063 15.175 121.13 15.175C119.111 15.175 117.273 15.6108 115.614 16.4818L116.916 19.1464C118.471 18.4477 119.824 18.0987 120.975 18.0987C122.47 18.0987 123.217 18.8318 123.217 20.2974V20.9314L120.718 21.009C118.561 21.0867 116.949 21.49 115.878 22.2185C114.809 22.9475 114.274 24.0793 114.274 25.614C114.274 27.0802 114.672 28.2098 115.466 29.0032C116.261 29.7965 117.349 30.1929 118.733 30.1929C119.859 30.1929 120.771 30.0313 121.471 29.7079C122.171 29.3845 122.852 28.8049 123.514 27.9682H123.617ZM121.697 23.2858L123.218 23.2342V24.424C123.218 25.2955 122.945 25.9939 122.399 26.5195C121.854 27.0458 121.125 27.3089 120.215 27.3089C118.944 27.3089 118.308 26.7525 118.308 25.6403C118.308 24.8639 118.587 24.2865 119.146 23.907C119.704 23.5274 120.554 23.3205 121.697 23.2858Z" fill="#050505"/>
</g>
</g>
</g>
</g>
</g>
</g>
</g>
<defs>
<clipPath id="clip0_4_6932">
<rect width="132" height="40" fill="white"/>
</clipPath>
</defs>
</svg>
