<svg width="80" height="60" viewBox="0 0 80 60" fill="none" xmlns="http://www.w3.org/2000/svg">
<g id="Frame 427321879">
<path id="Vector" fill-rule="evenodd" clip-rule="evenodd" d="M52.3104 17.5678L50.4509 15.7367C50.3033 15.5913 50.2203 15.3941 50.2205 15.1887V12.9473C50.2205 10.8758 50.0013 10.1248 49.5902 9.36755C49.1884 8.61969 48.5671 8.00784 47.807 7.61143C47.0387 7.20595 46.276 6.99048 44.1736 6.99048H41.1655C41.1344 6.99032 41.1041 6.98113 41.0783 6.96405C41.0525 6.94698 41.0324 6.92279 41.0206 6.89453C41.0088 6.86627 41.0058 6.83521 41.0118 6.80524C41.0179 6.77528 41.0329 6.74776 41.0548 6.72614L42.9143 4.89429C43.0614 4.74903 43.2617 4.66711 43.4704 4.66711H44.516C47.3196 4.66711 48.3365 4.95487 49.3618 5.49458C50.3751 6.02332 51.2033 6.83928 51.7389 7.83653C52.2873 8.84643 52.5793 9.84806 52.5793 12.6093V17.4591C52.5793 17.4897 52.57 17.5196 52.5527 17.5451C52.5354 17.5705 52.5108 17.5903 52.482 17.6021C52.4532 17.6138 52.4216 17.6169 52.3911 17.6109C52.3604 17.6049 52.3324 17.5895 52.3104 17.5678ZM39.4825 29.1861L41.342 27.3542C41.4891 27.209 41.6894 27.127 41.8981 27.127H44.1736C46.276 27.127 47.038 26.9116 47.807 26.5061C48.5671 26.1097 49.1884 25.4979 49.5902 24.75C50.0013 23.9927 50.2205 23.2417 50.2205 21.1703V18.2074C50.2206 18.1769 50.2299 18.1471 50.2472 18.1219C50.2645 18.0965 50.289 18.0768 50.3176 18.0651C50.3463 18.0534 50.3778 18.0503 50.4082 18.0561C50.4387 18.062 50.4667 18.0765 50.4887 18.0979L52.3489 19.9298C52.496 20.075 52.5793 20.2726 52.5793 20.4777V21.5083C52.5793 24.2695 52.2873 25.2711 51.7389 26.281C51.2033 27.2782 50.3751 28.0942 49.3618 28.6229C48.3365 29.162 47.3196 29.4497 44.516 29.4497H39.5932C39.5621 29.4496 39.5318 29.4404 39.506 29.4233C39.4802 29.4062 39.4601 29.3821 39.4483 29.3538C39.4365 29.3255 39.4334 29.2944 39.4395 29.2645C39.4456 29.2345 39.4605 29.2077 39.4825 29.1861ZM27.6891 16.5483L29.55 18.3802C29.6971 18.5254 29.7804 18.723 29.7804 18.9281V21.1696C29.7804 23.241 29.9989 23.992 30.4107 24.7493C30.8124 25.497 31.4334 26.1089 32.1932 26.5054C32.9622 26.9109 33.7249 27.1264 35.8273 27.1264H38.8347C38.8659 27.1262 38.8965 27.1352 38.9225 27.1522C38.9484 27.1692 38.9688 27.1933 38.9807 27.2217C38.9927 27.25 38.9959 27.2812 38.9898 27.3113C38.9838 27.3413 38.9688 27.369 38.9468 27.3907L37.0859 29.2225C36.9388 29.3678 36.7385 29.4497 36.5305 29.4497H35.4842C32.6806 29.4497 31.6644 29.162 30.6391 28.6223C29.6255 28.0936 28.7971 27.2777 28.2613 26.2803C27.7129 25.2704 27.4209 24.2688 27.4209 21.5076V16.6578C27.4211 16.6273 27.4304 16.5975 27.4477 16.5723C27.4649 16.5469 27.4894 16.5272 27.5181 16.5155C27.5467 16.5038 27.5782 16.5007 27.6086 16.5065C27.6391 16.5124 27.6671 16.5269 27.6891 16.5483ZM38.6582 6.76331C38.5104 6.90856 38.3108 6.99048 38.1021 6.99048H35.8266C33.7242 6.99048 32.9615 7.20595 32.1925 7.61143C31.4324 8.00784 30.8112 8.61969 30.4093 9.36755C29.9982 10.1248 29.779 10.8758 29.779 12.9473V15.9102C29.7789 15.9407 29.7695 15.9704 29.7523 15.9957C29.735 16.021 29.7105 16.0407 29.6819 16.0524C29.6532 16.0641 29.6217 16.0672 29.5913 16.0614C29.5609 16.0555 29.5329 16.041 29.5108 16.0196L27.652 14.1878C27.5041 14.0424 27.421 13.8454 27.4209 13.6398V12.6093C27.4209 9.84806 27.7129 8.84643 28.2613 7.83653C28.7969 6.83928 29.6251 6.02332 30.6384 5.49458C31.6637 4.95487 32.6806 4.66711 35.4835 4.66711H40.407C40.4381 4.66728 40.4684 4.67647 40.4942 4.69355C40.52 4.71062 40.5401 4.73481 40.5519 4.76307C40.5638 4.79132 40.5668 4.82239 40.5607 4.85235C40.5546 4.88232 40.5397 4.90984 40.5177 4.93146L38.6582 6.76331ZM48.382 13.71L45.8467 11.3226C45.6786 11.1574 45.4825 11.0376 45.2731 10.9626C45.0954 10.8964 44.907 10.8626 44.717 10.8628H37.233C37.2018 10.8627 37.1714 10.8536 37.1455 10.8366C37.1196 10.8196 37.0994 10.7954 37.0875 10.7671C37.0756 10.7388 37.0724 10.7077 37.0785 10.6777C37.0846 10.6477 37.0996 10.6201 37.1216 10.5984L38.9839 8.76588C39.131 8.62132 39.3306 8.5394 39.5393 8.5394H45.5035C47.2404 8.5394 48.6482 9.92653 48.6482 11.6372V13.5985C48.648 13.6287 48.6389 13.6582 48.6218 13.6834C48.6048 13.7086 48.5807 13.7284 48.5524 13.7402C48.5241 13.7521 48.4929 13.7555 48.4627 13.7501C48.4323 13.7448 48.4043 13.7309 48.382 13.71ZM43.399 25.3172L45.8222 22.819C45.9903 22.6538 46.1122 22.461 46.1885 22.2545C46.2555 22.0796 46.2896 21.8941 46.2894 21.7072V14.3344C46.2894 14.3038 46.2987 14.2739 46.316 14.2484C46.3333 14.2229 46.3579 14.2031 46.3866 14.1914C46.4154 14.1797 46.4471 14.1766 46.4776 14.1826C46.5082 14.1886 46.5362 14.2033 46.5583 14.2249L48.4185 16.0589C48.5655 16.2041 48.6482 16.401 48.6482 16.6068V22.4817C48.6482 24.1924 47.2404 25.5795 45.5035 25.5795H43.5124C43.4817 25.5794 43.4516 25.5703 43.426 25.5536C43.4004 25.5369 43.3803 25.5131 43.3682 25.4853C43.3562 25.4575 43.3527 25.4269 43.3581 25.3971C43.3636 25.3673 43.3777 25.3391 43.399 25.3172ZM31.6175 20.4068L34.1542 22.7942C34.3216 22.9594 34.5184 23.0792 34.7271 23.1543C34.8994 23.219 35.0871 23.2541 35.2832 23.2541H42.7672C42.7983 23.2542 42.8287 23.2634 42.8544 23.2805C42.8802 23.2976 42.9003 23.3217 42.9121 23.35C42.924 23.3783 42.927 23.4094 42.9209 23.4393C42.9148 23.4693 42.8999 23.4968 42.8779 23.5184L41.0163 25.351C40.8693 25.4955 40.6689 25.5774 40.4609 25.5774H34.4967C34.0832 25.577 33.674 25.4965 33.2922 25.3406C32.9104 25.1846 32.5636 24.9564 32.2716 24.6687C31.9796 24.381 31.7481 24.0397 31.5903 23.664C31.4325 23.2884 31.3516 22.886 31.352 22.4796V20.5183C31.3522 20.4881 31.3613 20.4586 31.3784 20.4334C31.3954 20.4082 31.4195 20.3884 31.4478 20.3766C31.4761 20.3648 31.5073 20.3613 31.5376 20.3667C31.5679 20.3721 31.5952 20.386 31.6175 20.4068ZM36.6012 8.80099L34.1773 11.2999C34.0092 11.4651 33.888 11.6579 33.8117 11.8644C33.7445 12.0393 33.7101 12.2247 33.7102 12.4117V19.7845C33.7098 19.8149 33.7004 19.8446 33.6831 19.8698C33.6658 19.895 33.6413 19.9146 33.6127 19.9262C33.5841 19.9378 33.5526 19.9408 33.5223 19.935C33.4919 19.9291 33.4639 19.9146 33.4419 19.8933L31.5817 18.0594C31.4345 17.914 31.3519 17.7172 31.352 17.5121V11.6372C31.352 9.92653 32.7598 8.5394 34.4967 8.5394H36.4878C36.5185 8.53954 36.5486 8.54854 36.5742 8.56527C36.5998 8.582 36.6199 8.60573 36.632 8.63354C36.644 8.66135 36.6475 8.69203 36.6421 8.72179C36.6366 8.75154 36.6225 8.77907 36.6012 8.80099Z" fill="#050505"/>
<g id="Vector_2">
<path d="M21.1859 40.7965H20.4995C19.9925 40.7965 19.5821 41.2006 19.5821 41.6983V49.7499C19.5821 49.989 19.6787 50.2184 19.8508 50.3875C20.0229 50.5567 20.2562 50.6517 20.4995 50.6517H21.0626C21.3059 50.6517 21.5393 50.5567 21.7114 50.3875C21.8834 50.2184 21.9801 49.989 21.9801 49.7499V45.3751C21.9801 45.2381 22.0095 45.0329 22.0697 44.7589C22.1382 44.4662 22.2602 44.1882 22.4297 43.9384C22.6097 43.6637 22.8696 43.4214 23.2092 43.2086C23.5489 42.9966 23.9978 42.8906 24.5581 42.8906C24.7491 42.8911 24.9397 42.9084 25.1275 42.9422C25.1997 42.955 25.2738 42.9521 25.3447 42.9336C25.4155 42.9152 25.4814 42.8817 25.5377 42.8355C25.5939 42.7893 25.6391 42.7314 25.6702 42.6661C25.7012 42.6009 25.7173 42.5297 25.7172 42.4576V41.1056C25.7172 40.9842 25.6742 40.8666 25.5959 40.7728C25.5174 40.679 25.4084 40.6149 25.2872 40.5913C25.1478 40.5638 25.0043 40.55 24.8579 40.55C24.2185 40.55 23.6519 40.7077 23.1588 41.0223C22.6658 41.3369 22.2862 41.7816 22.02 42.3571C21.9976 42.3571 21.9801 42.3392 21.9801 42.3178V41.5764C21.9801 41.1455 21.6243 40.7965 21.1859 40.7965Z" fill="#050505"/>
<path d="M29.1763 40.7965H28.6132C28.1062 40.7965 27.6957 41.2006 27.6957 41.6983V49.7499C27.6957 49.989 27.7924 50.2184 27.9645 50.3875C28.1366 50.5567 28.3699 50.6517 28.6132 50.6517H29.1763C29.4196 50.6517 29.653 50.5567 29.8251 50.3875C29.9971 50.2184 30.0938 49.989 30.0938 49.7499V41.6983C30.0938 41.2006 29.6827 40.7965 29.1763 40.7965Z" fill="#050505"/>
<path d="M27.7854 36.4127C27.499 36.7073 27.3561 37.0529 27.3561 37.4494C27.3541 37.6417 27.3911 37.8324 27.4648 38.0105C27.5385 38.1886 27.6475 38.3505 27.7854 38.4869C28.0719 38.7808 28.4353 38.9281 28.8745 38.9281C29.3143 38.9281 29.6841 38.7877 29.9838 38.5068C30.2836 38.2267 30.4335 37.8742 30.4335 37.4494C30.4335 37.0254 30.2836 36.6729 29.9838 36.3921C29.6841 36.1119 29.3143 35.9714 28.8745 35.9714C28.4353 35.9714 28.0726 36.1188 27.7854 36.4127Z" fill="#050505"/>
<path d="M36.3894 42.5209C36.7682 42.5209 37.2018 42.6972 37.6885 43.0482C37.8614 43.1733 38.0733 43.2347 38.2875 43.2221C38.5017 43.2093 38.7046 43.1232 38.8609 42.9787L39.1593 42.7027C39.2549 42.6144 39.3302 42.507 39.38 42.3877C39.4298 42.2684 39.4529 42.14 39.448 42.0111C39.443 41.8822 39.4099 41.756 39.3511 41.6407C39.2922 41.5254 39.2089 41.424 39.1068 41.3431C38.8273 41.1221 38.5745 40.9706 38.3476 40.8887C37.7214 40.6629 37.0883 40.55 36.4489 40.55C35.9699 40.55 35.4931 40.612 35.0306 40.7345C34.5844 40.8484 34.1639 41.0436 33.791 41.31C33.4284 41.5731 33.131 41.9134 32.9212 42.3055C32.7019 42.7096 32.592 43.1852 32.592 43.7325C32.592 44.3617 32.7188 44.8546 32.9716 45.2105C33.2178 45.5604 33.5471 45.8459 33.9311 46.0421C34.3245 46.2432 34.745 46.3885 35.1798 46.4738C35.5991 46.5564 36.0155 46.6521 36.4286 46.7608C36.8152 46.8634 37.1352 46.9969 37.3881 47.1615C37.6416 47.3253 37.7684 47.5786 37.7684 47.9215C37.7684 48.1128 37.7179 48.2801 37.6185 48.424C37.5183 48.5679 37.3881 48.687 37.2284 48.7834C37.0687 48.879 36.8957 48.9472 36.7087 48.9885C36.5224 49.0298 36.3424 49.0505 36.1687 49.0505C35.6631 49.0505 35.2331 48.9376 34.8801 48.7111C34.7736 48.6429 34.6475 48.5459 34.5019 48.4199C34.328 48.2694 34.1025 48.1891 33.8709 48.1953C33.6392 48.2014 33.4186 48.2934 33.2531 48.4529L33.0045 48.6925C32.9105 48.7829 32.8374 48.8921 32.7901 49.0126C32.7428 49.1332 32.7224 49.2623 32.7303 49.3914C32.7382 49.5203 32.7742 49.6461 32.8359 49.7603C32.8976 49.8744 32.9835 49.9742 33.0878 50.0528C33.431 50.3116 33.7252 50.4837 33.9703 50.5698C34.5971 50.788 35.2835 50.8981 36.0294 50.8981C36.5271 50.8975 37.0232 50.8424 37.5085 50.7336C37.9795 50.633 38.4292 50.4524 38.8371 50.2001C39.2304 49.9535 39.5591 49.6194 39.7966 49.2246C40.0431 48.8205 40.1664 48.3249 40.1664 47.7363C40.1664 47.0926 40.0396 46.5867 39.7868 46.217C39.5333 45.8466 39.2139 45.5561 38.8273 45.3441C38.4407 45.1321 38.0247 44.9751 37.5779 44.8718C37.1317 44.7693 36.7157 44.6701 36.3291 44.5744C35.9425 44.4788 35.6232 44.3617 35.3696 44.2254C35.1161 44.0884 34.99 43.8695 34.99 43.568C34.99 43.1983 35.1434 42.9319 35.4495 42.7674C35.7562 42.6035 36.0693 42.5209 36.3894 42.5209Z" fill="#050505"/>
<path d="M43.5856 40.7965H43.1422C42.6359 40.7965 42.2248 41.2006 42.2248 41.6983V49.7499C42.2248 49.989 42.3214 50.2184 42.4935 50.3875C42.6656 50.5567 42.8989 50.6517 43.1422 50.6517H43.7053C43.8259 50.6518 43.9453 50.6285 44.0566 50.5833C44.1681 50.538 44.2693 50.4715 44.3546 50.3878C44.4398 50.304 44.5075 50.2046 44.5536 50.0951C44.5998 49.9857 44.6235 49.8684 44.6235 49.7499V45.2725C44.622 44.954 44.662 44.6365 44.7426 44.328C44.8171 44.0382 44.9497 43.766 45.1327 43.5274C45.3127 43.2947 45.5389 43.1102 45.812 42.9725C46.0852 42.8362 46.422 42.7674 46.8212 42.7674C47.4081 42.7674 47.827 42.9491 48.0805 43.3112C48.334 43.674 48.4601 44.1635 48.4601 44.7796V49.7499C48.4601 49.989 48.5567 50.2184 48.729 50.3875C48.9006 50.5567 49.1345 50.6517 49.3776 50.6517H49.9407C50.0611 50.6517 50.1802 50.6284 50.2915 50.5831C50.4029 50.5377 50.5045 50.4713 50.5892 50.3875C50.6746 50.3038 50.7419 50.2044 50.7881 50.095C50.8343 49.9856 50.8581 49.8683 50.8581 49.7499V45.3131C50.8581 44.9986 50.8953 44.6851 50.9681 44.3789C51.0353 44.0855 51.1572 43.807 51.3281 43.5577C51.4927 43.3198 51.7119 43.1229 51.9675 42.9828C52.2273 42.839 52.5439 42.7674 52.9165 42.7674C53.2765 42.7674 53.5692 42.8286 53.7962 42.9526C54.0175 43.071 54.2031 43.2442 54.3354 43.4551C54.4748 43.6823 54.5694 43.9331 54.6156 44.1944C54.6688 44.4746 54.6954 44.7658 54.6954 45.0667V49.7492C54.6954 49.9883 54.7921 50.2177 54.9644 50.3869C55.1359 50.556 55.3699 50.651 55.6129 50.651H56.176C56.419 50.651 56.6529 50.556 56.8245 50.3869C56.9968 50.2177 57.0935 49.9883 57.0935 49.7492V44.7789C57.0935 44.191 57.0339 43.6403 56.9135 43.1267C56.7937 42.6132 56.5976 42.165 56.3245 41.7816C56.0499 41.3975 55.6829 41.087 55.255 40.8784C54.8152 40.6595 54.2759 40.55 53.6365 40.55C52.9165 40.55 52.2974 40.6973 51.7777 40.9913C51.258 41.2859 50.8252 41.7478 50.4785 42.3771C49.9855 41.1593 48.9868 40.55 47.481 40.55C46.6812 40.55 46.0452 40.7311 45.5725 41.0939C45.1301 41.4286 44.7655 41.8522 44.503 42.3364V41.6983C44.503 41.2006 44.0919 40.7965 43.5856 40.7965Z" fill="#050505"/>
<path d="M61.5317 40.7965H60.9693C60.4622 40.7965 60.0518 41.2006 60.0518 41.6983V49.7499C60.0518 49.989 60.1484 50.2184 60.3207 50.3875C60.4923 50.5567 60.7262 50.6517 60.9693 50.6517H61.5317C61.7747 50.6517 62.0086 50.5567 62.1802 50.3875C62.3525 50.2184 62.4491 49.989 62.4491 49.7499V41.6983C62.4491 41.2006 62.0387 40.7965 61.5317 40.7965Z" fill="#050505"/>
<path d="M60.1414 36.4127C59.855 36.7073 59.7114 37.0529 59.7114 37.4494C59.7093 37.6417 59.7464 37.8325 59.8207 38.0106C59.8942 38.1887 60.0035 38.3506 60.1414 38.4869C60.4279 38.7808 60.7907 38.9281 61.2305 38.9281C61.6703 38.9281 62.0401 38.7877 62.3399 38.5068C62.6396 38.2267 62.7895 37.8742 62.7895 37.4494C62.7895 37.0254 62.6396 36.6729 62.3399 36.3921C62.0401 36.1119 61.6703 35.9714 61.2305 35.9714C60.7907 35.9714 60.4279 36.1188 60.1414 36.4127Z" fill="#050505"/>
<path d="M71.1833 43.0345C71.2737 43.0887 71.3605 43.1485 71.4432 43.2135C71.6225 43.3514 71.8473 43.4188 72.0742 43.4028C72.3011 43.3868 72.514 43.2884 72.6716 43.1267L73.0428 42.746C73.1325 42.6537 73.2018 42.5436 73.2452 42.4231C73.2886 42.3026 73.3054 42.1744 73.2942 42.047C73.2837 41.9196 73.2452 41.7959 73.1822 41.6842C73.1191 41.5724 73.0323 41.4752 72.928 41.3988C72.6072 41.1641 72.3284 41.0009 72.0924 40.9094C71.4726 40.6698 70.857 40.55 70.2435 40.55C69.5466 40.546 68.8553 40.6715 68.2054 40.9197C67.5856 41.1536 67.0204 41.5099 66.5462 41.9668C66.07 42.4331 65.6932 42.9879 65.4376 43.599C65.1644 44.2357 65.0279 44.9441 65.0279 45.7241C65.0279 46.504 65.1644 47.2124 65.4376 47.8492C65.6932 48.4602 66.07 49.0151 66.5462 49.4814C67.0204 49.9382 67.5856 50.2945 68.2054 50.5285C68.8553 50.7767 69.5466 50.9021 70.2435 50.8981C70.4571 50.8981 70.7099 50.874 71.0034 50.8265C71.6617 50.7155 72.2948 50.4894 72.8719 50.1588C72.984 50.0949 73.0806 50.0073 73.1542 49.9023C73.2277 49.7972 73.2767 49.6775 73.297 49.5515C73.3173 49.4256 73.3096 49.2968 73.2732 49.1744C73.2368 49.052 73.1731 48.9391 73.0869 48.8439L72.7227 48.4419C72.5708 48.2738 72.3606 48.1675 72.133 48.144C71.9054 48.1204 71.6771 48.1813 71.4929 48.3146C71.418 48.3689 71.3479 48.4123 71.2828 48.4447C70.9634 48.6016 70.6168 48.6808 70.2435 48.6808C69.8043 48.6808 69.4107 48.5982 69.0647 48.4343C68.7265 48.2759 68.4246 48.0524 68.176 47.7769C67.9288 47.5036 67.7418 47.1883 67.6157 46.8324C67.4889 46.4765 67.4259 46.1075 67.4259 45.7234C67.4252 45.3461 67.4889 44.9713 67.6157 44.6151C67.7376 44.2672 67.9274 43.9463 68.1753 43.6706C68.4239 43.3953 68.7265 43.172 69.0647 43.0138C69.4107 42.85 69.8043 42.7674 70.2435 42.7674C70.5754 42.7707 70.9004 42.8631 71.1833 43.0345Z" fill="#050505"/>
<path fill-rule="evenodd" clip-rule="evenodd" d="M8.21728 40.7965H7.60937C7.10231 40.7965 6.69189 41.2006 6.69189 41.6983V54.431C6.69189 54.5494 6.71564 54.6667 6.76172 54.7761C6.80781 54.8856 6.87539 54.985 6.96063 55.0687C7.04579 55.1525 7.14692 55.2188 7.25828 55.2642C7.36957 55.3095 7.48891 55.3328 7.60937 55.3328H8.17176C8.41506 55.3328 8.64843 55.2378 8.82051 55.0687C8.99259 54.8996 9.08924 54.6702 9.08924 54.431V49.458C9.08945 49.4424 9.09582 49.4275 9.1071 49.4166C9.11837 49.4056 9.13364 49.3995 9.14947 49.3995C9.28569 49.5816 9.43984 49.7502 9.60961 49.9027C9.81663 50.0882 10.0446 50.2499 10.289 50.3846C10.5786 50.5446 10.8872 50.6688 11.2078 50.7543C11.5545 50.8499 11.9537 50.8981 12.4069 50.8981C13.0559 50.9047 13.698 50.7678 14.2859 50.4975C14.8491 50.2379 15.3497 49.8636 15.7546 49.3995C16.1721 48.9147 16.4939 48.3577 16.7036 47.7569C16.9341 47.1034 17.049 46.4158 17.0433 45.7241C17.0433 44.9992 16.9368 44.3211 16.7232 43.6912C16.5251 43.0876 16.206 42.5291 15.7847 42.0487C15.3715 41.584 14.8721 41.2171 14.2859 40.9507C13.6997 40.6836 13.04 40.55 12.3067 40.55C11.6507 40.5449 11.002 40.6852 10.4087 40.9603C9.82181 41.235 9.35607 41.6721 9.00939 42.2745C8.98768 42.2745 8.96947 42.2573 8.96947 42.2352V41.5358C8.96947 41.1269 8.6326 40.7965 8.21728 40.7965ZM14.5008 44.7496C14.5973 45.0636 14.6456 45.3886 14.6456 45.7241C14.6456 46.1075 14.5825 46.4765 14.4565 46.8324C14.329 47.1883 14.1427 47.5036 13.8962 47.7769C13.8651 47.8113 13.8332 47.845 13.8005 47.8778C13.5714 48.1073 13.3028 48.2958 13.0067 48.4343C12.9635 48.4548 12.9195 48.474 12.8748 48.492C12.5618 48.6175 12.2129 48.6808 11.828 48.6808C11.8005 48.6808 11.7732 48.6805 11.7461 48.6798C11.3393 48.6701 10.9737 48.5879 10.6493 48.4343C10.311 48.276 10.0085 48.0525 9.75985 47.7769C9.51262 47.5036 9.32632 47.1883 9.19956 46.8324C9.0735 46.4765 9.01046 46.1075 9.01046 45.7234C9.00927 45.3461 9.07322 44.9713 9.19956 44.6151C9.20717 44.5933 9.21505 44.5717 9.22319 44.5502C9.34535 44.2273 9.52698 43.9291 9.75915 43.6706C10.0078 43.3953 10.3103 43.1719 10.6486 43.0138C10.9946 42.85 11.3882 42.7674 11.828 42.7674C12.2678 42.7674 12.6607 42.8493 13.0067 43.0138C13.0279 43.0237 13.0489 43.0338 13.0697 43.0442C13.3826 43.2001 13.663 43.4125 13.8962 43.6706C13.9272 43.7051 13.9573 43.7402 13.9865 43.7761C14.1907 44.0272 14.3498 44.3111 14.4565 44.6157C14.4722 44.6601 14.487 44.7048 14.5008 44.7496Z" fill="#050505"/>
</g>
</g>
</svg>
