<svg width="136" height="40" viewBox="0 0 136 40" fill="none" xmlns="http://www.w3.org/2000/svg">
<g id="shopify-logo-monotone-black-6bded589fa6172f888c4b4f6ae1eca654e865dbb93271f7e2b94a563749aeb40 1" clip-path="url(#clip0_4_6899)">
<path id="Vector" d="M47.0233 22.2245C45.8519 21.5697 45.235 21.021 45.235 20.2602C45.235 19.2965 46.0665 18.6786 47.372 18.6786C48.3607 18.7037 49.3354 18.926 50.2422 19.3334L51.3107 15.9582C51.3107 15.9582 50.3271 15.1651 47.439 15.1651C43.4154 15.1651 40.6256 17.5397 40.6256 20.8827C40.6256 22.7778 41.9266 24.2256 43.6613 25.2585C45.0651 26.0838 45.5658 26.6694 45.5658 27.5317C45.5658 28.3939 44.8639 29.1501 43.5629 29.1501C42.2476 29.0982 40.9595 28.7487 39.7896 28.1265L38.654 31.4925C40.0356 32.3045 41.6068 32.7096 43.1963 32.6637C47.3362 32.6637 50.3093 30.5611 50.3093 26.7709C50.3271 24.742 48.825 23.2942 47.0233 22.2245ZM63.5203 15.1282C61.4817 15.1282 59.8811 16.1288 58.6427 17.6458L58.5757 17.6089L60.364 8.06885H55.7367L51.266 32.3547H55.8843L57.4222 24.055C58.0213 20.9196 59.595 18.983 61.0614 18.983C62.0986 18.983 62.501 19.7069 62.501 20.7397C62.5012 21.4457 62.4338 22.15 62.2998 22.8423L60.5607 32.3501H65.17L66.9583 22.5334C67.1556 21.5109 67.2663 20.4726 67.2891 19.4302C67.2936 16.7467 65.9256 15.1282 63.5203 15.1282ZM77.7149 15.1282C72.1712 15.1282 68.4963 20.2971 68.4963 26.0516C68.4963 29.7403 70.7003 32.6959 74.8447 32.6959C80.2856 32.6959 83.9605 27.67 83.9605 21.7772C83.9605 18.3697 82.0247 15.1282 77.7149 15.1282ZM75.4438 29.0487C73.8745 29.0487 73.2084 27.6654 73.2084 25.9455C73.2084 23.225 74.5765 18.7801 77.0801 18.7801C78.7164 18.7801 79.2529 20.2279 79.2529 21.6389C79.2529 24.5668 77.8848 29.0487 75.4438 29.0487ZM95.7499 15.1282C92.6427 15.1282 90.8768 17.9547 90.8768 17.9547H90.8097L91.078 15.4049H87.0007C86.7995 17.1294 86.4329 19.7438 86.0663 21.708L82.8607 39.1052H87.4701L88.7398 32.0781H88.8381C89.6651 32.5208 90.5896 32.7337 91.5206 32.6959C96.9302 32.6959 100.462 26.9784 100.462 21.1916C100.493 17.9824 99.1253 15.1282 95.7499 15.1282ZM91.3417 29.1132C90.6497 29.1218 89.977 28.8786 89.4417 28.4262L90.2062 23.9766C90.7427 21.0164 92.2448 19.0521 93.8498 19.0521C95.2492 19.0521 95.6873 20.3939 95.6873 21.6712C95.6873 24.7374 93.899 29.1086 91.3417 29.1086V29.1132ZM107.074 8.2994C106.729 8.29818 106.387 8.36711 106.068 8.50224C105.748 8.63738 105.458 8.83607 105.213 9.08697C104.968 9.33788 104.773 9.63609 104.64 9.96457C104.507 10.293 104.438 10.6454 104.437 11.0014V11.066C104.437 12.4769 105.304 13.4406 106.609 13.4406H106.676C107.362 13.4631 108.029 13.2053 108.531 12.7235C109.033 12.2416 109.331 11.5747 109.359 10.8677V10.674C109.388 10.078 109.188 9.49404 108.802 9.04933C108.416 8.60462 107.875 8.3351 107.298 8.2994H107.074ZM100.627 32.3547H105.237L108.38 15.5063H103.735L100.627 32.3547ZM120.102 15.474H116.892L117.062 14.681C117.33 13.0625 118.265 11.6147 119.798 11.6147C120.298 11.6148 120.794 11.6973 121.269 11.8591L122.163 8.13801C121.366 7.81894 120.513 7.67751 119.659 7.72303C118.02 7.67651 116.419 8.23947 115.148 9.3092C113.579 10.6925 112.846 12.6844 112.466 14.681L112.332 15.474H110.195L109.533 19.0567H111.67L109.234 32.3547H113.843L116.28 19.0567H119.454L120.102 15.474ZM131.189 15.5109C131.189 15.5109 128.31 22.9945 127.014 27.0844H126.969C126.88 25.7657 125.834 15.5109 125.834 15.5109H120.969L123.741 30.9761C123.776 31.1084 123.786 31.2466 123.769 31.3828C123.752 31.5189 123.709 31.6502 123.643 31.7691C123.046 32.9118 122.194 33.8917 121.157 34.6279C120.351 35.2042 119.466 35.6547 118.533 35.9651L119.816 39.9997C121.505 39.5405 123.056 38.6528 124.327 37.4175C126.433 35.3841 128.351 32.2487 130.371 27.9789L136.018 15.5294L131.189 15.5109ZM22.7606 4.57836L21.6295 4.93801C21.4922 4.46023 21.311 3.99704 21.0885 3.55473C20.2882 1.97778 19.1124 1.1432 17.6952 1.1432H17.4001C17.3018 1.1432 17.3197 1.03715 17.275 0.99104C16.977 0.656161 16.6107 0.393567 16.2025 0.22215C15.7944 0.0507336 15.3544 -0.0252434 14.9144 -0.000314427C13.0859 0.055017 11.2618 1.41986 9.78198 3.84061C8.75886 5.52192 8.06053 7.39138 7.72544 9.34608L4.12203 10.4988C3.06246 10.8446 3.02669 10.8769 2.8881 11.9098C2.7808 12.7305 0 34.8723 0 34.8723L23.0333 38.9853V4.54147C22.9412 4.54209 22.8496 4.55448 22.7606 4.57836ZM17.4359 6.28441L13.5508 7.52937C13.8965 6.07892 14.5689 4.73299 15.5135 3.60084C15.8884 3.17725 16.3453 2.83953 16.8547 2.60948C17.2944 3.77936 17.4924 5.03106 17.4359 6.28441ZM14.9412 1.30458C15.3284 1.28493 15.7122 1.38791 16.041 1.59969C15.5105 1.89351 15.0315 2.27691 14.6238 2.73398C13.385 4.21787 12.5544 6.01708 12.2185 7.94435L9.02643 8.96337C9.6568 5.96165 12.1202 1.38297 14.9457 1.30458H14.9412ZM11.3646 18.5864C11.4898 20.606 16.6446 21.0487 16.9352 25.7795C17.1632 29.5052 15.0172 32.055 11.9324 32.2348C10.8908 32.3314 9.84114 32.202 8.85095 31.8549C7.86075 31.5079 6.95196 30.9509 6.18304 30.2199L6.96989 26.7755C6.96989 26.7755 9.02196 28.3755 10.6672 28.2648C11.0482 28.2527 11.4093 28.0862 11.6721 27.8014C11.9349 27.5165 12.0782 27.1363 12.071 26.7432V26.6602C11.9235 24.0227 7.72544 24.1795 7.46167 19.8268C7.23813 16.1795 9.55845 12.4861 14.6819 12.1542C16.6535 12.025 17.6639 12.5461 17.6639 12.5461L16.4926 17.0648C15.5893 16.682 14.6158 16.5074 13.6402 16.553C11.4049 16.719 11.3602 18.1945 11.3825 18.568L11.3646 18.5864ZM18.6385 5.89709C18.6451 4.72781 18.4576 3.56599 18.0842 2.46193C19.4746 2.73398 20.1586 4.35242 20.4447 5.32072L18.6385 5.89709ZM23.8022 38.8884L33.3562 36.4262C33.3562 36.4262 29.2431 7.73225 29.2163 7.53859C29.2036 7.45504 29.1641 7.37829 29.1041 7.32061C29.0442 7.26294 28.9672 7.22766 28.8855 7.22043L26.0555 7.1651C26.0555 7.1651 24.4147 5.5236 23.8201 4.90113L23.8022 38.8884Z" fill="#050505"/>
</g>
<defs>
<clipPath id="clip0_4_6899">
<rect width="136" height="40" fill="white"/>
</clipPath>
</defs>
</svg>
