<svg width="21" height="20" viewBox="0 0 21 20" fill="none" xmlns="http://www.w3.org/2000/svg">
<g id="Frame">
<path id="Vector" d="M17.375 3.125H6.125C5.79348 3.125 5.47554 3.2567 5.24112 3.49112C5.0067 3.72554 4.875 4.04348 4.875 4.375V5.625H3.625C3.29348 5.625 2.97554 5.7567 2.74112 5.99112C2.5067 6.22554 2.375 6.54348 2.375 6.875V15.625C2.375 15.9565 2.5067 16.2745 2.74112 16.5089C2.97554 16.7433 3.29348 16.875 3.625 16.875H14.875C15.2065 16.875 15.5245 16.7433 15.7589 16.5089C15.9933 16.2745 16.125 15.9565 16.125 15.625V14.375H17.375C17.7065 14.375 18.0245 14.2433 18.2589 14.0089C18.4933 13.7745 18.625 13.4565 18.625 13.125V4.375C18.625 4.04348 18.4933 3.72554 18.2589 3.49112C18.0245 3.2567 17.7065 3.125 17.375 3.125ZM14.875 6.875V8.125H3.625V6.875H14.875ZM17.375 13.125H16.125V6.875C16.125 6.54348 15.9933 6.22554 15.7589 5.99112C15.5245 5.7567 15.2065 5.625 14.875 5.625H6.125V4.375H17.375V13.125Z" fill="#FA6318"/>
</g>
</svg>
