<svg width="64" height="74" viewBox="0 0 64 74" fill="none" xmlns="http://www.w3.org/2000/svg">
<g id="svelte-vertical 1">
<path id="Vector" d="M11.1034 66.4675C10.3959 66.4852 9.69964 66.2885 9.10612 65.9031C8.5516 65.5374 8.13982 64.992 7.93994 64.3586L9.15574 63.9119C9.32418 64.301 9.59948 64.6344 9.94972 64.8734C10.3052 65.1115 10.7252 65.2349 11.153 65.2269C11.5643 65.2484 11.9702 65.1256 12.3005 64.8796C12.4442 64.7589 12.5578 64.6064 12.6321 64.4341C12.7064 64.2617 12.7395 64.0744 12.7286 63.8871C12.7303 63.7126 12.6898 63.5402 12.6107 63.3846C12.5419 63.2454 12.4519 63.1178 12.344 63.0062C12.2075 62.8819 12.0527 62.7794 11.885 62.7022C11.6781 62.599 11.5065 62.5204 11.3702 62.4665C11.2337 62.4129 11.0331 62.3405 10.7685 62.2494C10.4376 62.1337 10.1895 62.0428 10.0242 61.9766C9.80016 61.8813 9.58261 61.7714 9.37289 61.6478C9.14719 61.528 8.94199 61.3731 8.76499 61.1889C8.61185 61.009 8.48833 60.8058 8.39907 60.5871C8.22774 60.17 8.19185 59.7097 8.29647 59.2711C8.4011 58.8326 8.64095 58.438 8.98209 58.1433C9.55079 57.68 10.2718 57.4455 11.0042 57.4858C11.6237 57.4603 12.2362 57.6248 12.7596 57.9572C13.2052 58.2534 13.5323 58.697 13.6838 59.2102L12.4929 59.6072C12.3732 59.3384 12.1712 59.1146 11.9159 58.9683C11.6073 58.797 11.2577 58.7134 10.905 58.7263C10.5591 58.7065 10.2164 58.8025 9.93119 58.9993C9.8147 59.0895 9.72173 59.2066 9.66017 59.3405C9.59862 59.4744 9.5703 59.6212 9.57762 59.7684C9.57865 59.8812 9.60348 59.9926 9.6505 60.0952C9.69751 60.1979 9.76564 60.2894 9.85044 60.3639C10.0153 60.5262 10.2088 60.6566 10.4211 60.7485C10.6197 60.8312 10.9216 60.9429 11.3268 61.0835C11.5748 61.1746 11.7587 61.2428 11.8787 61.2882C11.9987 61.3335 12.1745 61.41 12.406 61.5176C12.5916 61.5998 12.77 61.6973 12.9394 61.8092C13.091 61.9183 13.236 62.0363 13.3736 62.1628C13.5231 62.2925 13.6509 62.4454 13.752 62.6156C13.8483 62.7921 13.9232 62.9795 13.9752 63.1737C14.0385 63.4019 14.0699 63.6379 14.0683 63.8747C14.0859 64.2347 14.02 64.5939 13.8758 64.9242C13.7316 65.2545 13.513 65.547 13.2371 65.7789C12.6308 66.2556 11.874 66.4998 11.1034 66.4675ZM19.0551 66.3186L16.0777 57.6347H17.4672L19.4397 63.6887C19.5488 64.0143 19.6399 64.3456 19.7127 64.6812C19.7853 64.3456 19.8764 64.0143 19.9856 63.6887L21.9333 57.6347H23.3103L20.3453 66.3186L19.0551 66.3186ZM25.9401 66.3186V57.6347H31.3242V58.8505H27.2304V61.2325H29.8727V62.4483H27.2304V65.1029H31.597V66.3187L25.9401 66.3186ZM34.8845 66.3186V57.6347H36.1748V65.0781H40.4174V66.3186L34.8845 66.3186ZM45.2802 58.8753V66.3186H43.9899V58.8753H41.5337V57.6347H47.7363V58.8753H45.2802ZM50.4035 66.3186V57.6347H55.7877V58.8505H51.6938V61.2325H54.3361V62.4483H51.6938V65.1029H56.0604V66.3187L50.4035 66.3186Z" fill="#050505"/>
<path id="Subtract" fill-rule="evenodd" clip-rule="evenodd" d="M29.9834 9.16414C35.8161 5.44769 43.8835 7.18051 47.9679 13.0266C48.9372 14.3834 49.6258 15.9201 49.9931 17.5466C50.3605 19.173 50.3993 20.8565 50.1073 22.4981C49.8245 24.0658 49.2267 25.5599 48.35 26.89C49.6291 29.3293 50.0584 32.1255 49.5699 34.8361C49.2813 36.4454 48.66 37.9767 47.7457 39.3322C46.8315 40.6877 45.6444 41.8374 44.2605 42.7079L34.0165 49.2369C28.1844 52.9531 20.1174 51.221 16.0319 45.3744C15.0628 44.0175 14.3744 42.4808 14.007 40.8544C13.6396 39.228 13.6007 37.5446 13.8925 35.9029C14.1756 34.3351 14.7737 32.841 15.6505 31.5108C14.3709 29.0717 13.9414 26.2755 14.43 23.5648C14.7188 21.9556 15.3401 20.4243 16.2544 19.0688C17.1686 17.7134 18.3555 16.5636 19.7394 15.693L29.9834 9.16414ZM24.1066 45.6789C25.6684 46.2579 27.3703 46.3436 28.9824 45.9244C29.7188 45.7276 30.4209 45.4192 31.0639 45.0098L41.3073 38.4818C42.1395 37.9582 42.8533 37.2667 43.4031 36.4516C43.9528 35.6365 44.3265 34.7156 44.5002 33.7479C44.6758 32.7607 44.6524 31.7483 44.4314 30.7702C44.2104 29.7921 43.7963 28.868 43.2134 28.0521C42.264 26.6835 40.9174 25.6392 39.3556 25.0602C37.7938 24.4813 36.0919 24.3956 34.4799 24.8148C33.7439 25.0114 33.0424 25.3198 32.3999 25.729L28.4913 28.22C28.2968 28.3437 28.0846 28.4369 27.8621 28.4966C27.3763 28.6225 26.8637 28.5964 26.3933 28.4217C25.9229 28.2471 25.5174 27.9324 25.2315 27.52C25.0561 27.274 24.9314 26.9954 24.865 26.7005C24.7985 26.4057 24.7915 26.1006 24.8444 25.803C24.8968 25.5115 25.0093 25.2342 25.1749 24.9887C25.3405 24.7432 25.5555 24.5349 25.8061 24.3771L36.0504 17.849C36.2448 17.7253 36.457 17.632 36.6796 17.5725C37.1651 17.4465 37.6775 17.4725 38.1478 17.6471C38.618 17.8216 39.0233 18.1362 39.309 18.5485C39.622 18.9916 39.7684 19.5311 39.7222 20.0716L39.6872 20.4516L40.0679 20.5671C41.5081 21.0016 42.8635 21.679 44.0754 22.57L44.6 22.9546L44.7929 22.3664C44.8962 22.0535 44.978 21.7339 45.0377 21.4098C45.2133 20.4225 45.1898 19.4101 44.9689 18.432C44.7479 17.4539 44.3338 16.5298 43.7508 15.7139C42.8015 14.3453 41.4549 13.301 39.8931 12.7221C38.3313 12.1432 36.6294 12.0575 35.0173 12.4767C34.2809 12.6734 33.5789 12.9819 32.9359 13.3913L22.6927 19.92C21.8604 20.4434 21.1465 21.1346 20.5967 21.9497C20.0468 22.7647 19.6731 23.6855 19.4995 24.6531C19.3239 25.6404 19.3473 26.6528 19.5683 27.6309C19.7893 28.609 20.2034 29.5331 20.7864 30.349C21.7358 31.7176 23.0823 32.7619 24.6442 33.3409C26.206 33.9198 27.9079 34.0055 29.52 33.5863C30.2559 33.3896 30.9573 33.0815 31.6001 32.6728L35.5093 30.1809C35.7034 30.0572 35.9154 29.964 36.1377 29.9045C36.6234 29.7786 37.1361 29.8047 37.6065 29.9793C38.0769 30.154 38.4824 30.4687 38.7682 30.881C38.9436 31.1271 39.0683 31.4057 39.1349 31.7004C39.2015 31.9952 39.2087 32.3003 39.1561 32.5978C39.1035 32.8893 38.9908 33.1667 38.825 33.4122C38.6593 33.6578 38.4443 33.8661 38.1936 34.0239L27.9494 40.5521C27.755 40.6759 27.5428 40.7692 27.3202 40.8287C26.8347 40.9547 26.3222 40.9287 25.852 40.7541C25.3817 40.5796 24.9764 40.265 24.6907 39.8527C24.3774 39.4097 24.231 38.8701 24.2775 38.3296L24.3125 37.9496L23.9318 37.834C22.4918 37.3996 21.1366 36.7224 19.9245 35.8319L19.3997 35.4464L19.2068 36.0346C19.1032 36.3475 19.0214 36.6671 18.962 36.9913C18.7864 37.9786 18.8099 38.9909 19.0308 39.969C19.2518 40.9471 19.6659 41.8712 20.2489 42.6871C21.1982 44.0557 22.5448 45.1 24.1066 45.6789Z" fill="#050505"/>
</g>
</svg>
