<svg width="32" height="32" viewBox="0 0 32 32" fill="none" xmlns="http://www.w3.org/2000/svg">
<path d="M16 15C17.3261 15 18.5979 15.5268 19.5355 16.4645C20.4732 17.4021 21 18.6739 21 20V26H11V20C11 18.6739 11.5268 17.4021 12.4645 16.4645C13.4021 15.5268 14.6739 15 16 15ZM9.288 18.006C9.12886 18.5428 9.03485 19.0968 9.008 19.656L9 20V26H6V21.5C5.9998 20.6376 6.31803 19.8054 6.89363 19.1632C7.46924 18.521 8.2617 18.1139 9.119 18.02L9.289 18.006H9.288ZM22.712 18.006C23.6019 18.0602 24.4376 18.452 25.0486 19.1012C25.6596 19.7505 25.9999 20.6084 26 21.5V26H23V20C23 19.307 22.9 18.638 22.712 18.006ZM9.5 12C10.163 12 10.7989 12.2634 11.2678 12.7322C11.7366 13.2011 12 13.837 12 14.5C12 15.163 11.7366 15.7989 11.2678 16.2678C10.7989 16.7366 10.163 17 9.5 17C8.83696 17 8.20107 16.7366 7.73223 16.2678C7.26339 15.7989 7 15.163 7 14.5C7 13.837 7.26339 13.2011 7.73223 12.7322C8.20107 12.2634 8.83696 12 9.5 12ZM22.5 12C23.163 12 23.7989 12.2634 24.2678 12.7322C24.7366 13.2011 25 13.837 25 14.5C25 15.163 24.7366 15.7989 24.2678 16.2678C23.7989 16.7366 23.163 17 22.5 17C21.837 17 21.2011 16.7366 20.7322 16.2678C20.2634 15.7989 20 15.163 20 14.5C20 13.837 20.2634 13.2011 20.7322 12.7322C21.2011 12.2634 21.837 12 22.5 12ZM16 6C17.0609 6 18.0783 6.42143 18.8284 7.17157C19.5786 7.92172 20 8.93913 20 10C20 11.0609 19.5786 12.0783 18.8284 12.8284C18.0783 13.5786 17.0609 14 16 14C14.9391 14 13.9217 13.5786 13.1716 12.8284C12.4214 12.0783 12 11.0609 12 10C12 8.93913 12.4214 7.92172 13.1716 7.17157C13.9217 6.42143 14.9391 6 16 6Z" fill="#FA6318"/>
</svg>
