<svg width="17" height="16" viewBox="0 0 17 16" fill="none" xmlns="http://www.w3.org/2000/svg">
<g id="Frame" clip-path="url(#clip0_4_5356)">
<path id="Vector" d="M10.5 2.01575V13.9807C10.5015 14.0703 10.4798 14.1587 10.437 14.2373C10.3941 14.316 10.3317 14.3822 10.2556 14.4295C10.1692 14.4809 10.0693 14.505 9.96897 14.4988C9.86863 14.4926 9.7725 14.4562 9.69312 14.3945L5.595 11.207C5.56529 11.1835 5.5413 11.1536 5.52484 11.1195C5.50838 11.0854 5.49989 11.048 5.5 11.0101V4.99012C5.50011 4.9521 5.5089 4.9146 5.52568 4.88049C5.54247 4.84637 5.56682 4.81654 5.59687 4.79325L9.695 1.60575C9.78481 1.53615 9.89565 1.49922 10.0093 1.50104C10.1229 1.50286 10.2325 1.54331 10.32 1.61575C10.3775 1.66514 10.4234 1.72658 10.4545 1.79571C10.4856 1.86483 10.5012 1.93995 10.5 2.01575ZM4.25 5.00012H2.5C2.23478 5.00012 1.98043 5.10548 1.79289 5.29302C1.60536 5.48055 1.5 5.73491 1.5 6.00012V10.0001C1.5 10.2653 1.60536 10.5197 1.79289 10.7072C1.98043 10.8948 2.23478 11.0001 2.5 11.0001H4.25C4.3163 11.0001 4.37989 10.9738 4.42678 10.9269C4.47366 10.88 4.5 10.8164 4.5 10.7501V5.25012C4.5 5.18382 4.47366 5.12023 4.42678 5.07334C4.37989 5.02646 4.3163 5.00012 4.25 5.00012ZM12.1731 6.30262C12.1238 6.34601 12.0834 6.39871 12.0544 6.4577C12.0254 6.51669 12.0084 6.58082 12.0042 6.64642C12 6.71201 12.0088 6.77779 12.0301 6.83998C12.0513 6.90218 12.0847 6.95957 12.1281 7.00887C12.3693 7.28277 12.5023 7.63519 12.5023 8.00012C12.5023 8.36506 12.3693 8.71748 12.1281 8.99137C12.0835 9.04042 12.049 9.09787 12.0268 9.16036C12.0046 9.22285 11.995 9.28913 11.9987 9.35536C12.0023 9.42158 12.0191 9.48642 12.048 9.54609C12.077 9.60577 12.1175 9.65909 12.1672 9.70296C12.217 9.74682 12.275 9.78034 12.3378 9.80158C12.4006 9.82282 12.4671 9.83134 12.5332 9.82666C12.5994 9.82198 12.6639 9.80418 12.7232 9.7743C12.7824 9.74442 12.8351 9.70306 12.8781 9.65262C13.2803 9.19607 13.5022 8.60854 13.5022 8.00012C13.5022 7.39171 13.2803 6.80417 12.8781 6.34762C12.8347 6.29816 12.782 6.25774 12.7229 6.2287C12.6639 6.19965 12.5997 6.18255 12.534 6.17837C12.4684 6.17419 12.4025 6.18301 12.3403 6.20434C12.278 6.22566 12.2206 6.25906 12.1712 6.30262H12.1731ZM14.7287 4.667C14.6857 4.61557 14.6328 4.57333 14.5731 4.54277C14.5134 4.51222 14.4482 4.49398 14.3813 4.48914C14.3145 4.48431 14.2473 4.49297 14.1839 4.51461C14.1204 4.53626 14.0619 4.57044 14.012 4.61514C13.962 4.65983 13.9215 4.71412 13.8929 4.77478C13.8644 4.83543 13.8483 4.90122 13.8457 4.96821C13.843 5.03521 13.8539 5.10205 13.8776 5.16476C13.9013 5.22747 13.9374 5.28477 13.9837 5.33325C14.6398 6.06664 15.0025 7.01612 15.0025 8.00012C15.0025 8.98413 14.6398 9.93361 13.9837 10.667C13.9374 10.7155 13.9013 10.7728 13.8776 10.8355C13.8539 10.8982 13.843 10.965 13.8457 11.032C13.8483 11.099 13.8644 11.1648 13.8929 11.2255C13.9215 11.2861 13.962 11.3404 14.012 11.3851C14.0619 11.4298 14.1204 11.464 14.1839 11.4856C14.2473 11.5073 14.3145 11.5159 14.3813 11.5111C14.4482 11.5063 14.5134 11.488 14.5731 11.4575C14.6328 11.4269 14.6857 11.3847 14.7287 11.3332C15.5486 10.4166 16.0018 9.22991 16.0018 8.00012C16.0018 6.77033 15.5486 5.58367 14.7287 4.667Z" fill="#050505"/>
</g>
<defs>
<clipPath id="clip0_4_5356">
<rect width="16" height="16" fill="white" transform="translate(0.5)"/>
</clipPath>
</defs>
</svg>
